<?xml version="1.0" encoding="UTF-8" standalone="no"?>
<!-- Created with Inkscape (http://www.inkscape.org/) -->

<svg
   xmlns:dc="http://purl.org/dc/elements/1.1/"
   xmlns:cc="http://creativecommons.org/ns#"
   xmlns:rdf="http://www.w3.org/1999/02/22-rdf-syntax-ns#"
   xmlns:svg="http://www.w3.org/2000/svg"
   xmlns="http://www.w3.org/2000/svg"
   xmlns:sodipodi="http://sodipodi.sourceforge.net/DTD/sodipodi-0.dtd"
   xmlns:inkscape="http://www.inkscape.org/namespaces/inkscape"
   width="99.029701mm"
   height="105.23208mm"
   viewBox="0 0 99.029701 105.23208"
   version="1.1"
   id="svg8"
   inkscape:version="0.92.4 5da689c313, 2019-01-14"
   sodipodi:docname="trees.svg">
  <defs
     id="defs2" />
  <sodipodi:namedview
     id="base"
     pagecolor="#ffffff"
     bordercolor="#666666"
     borderopacity="1.0"
     inkscape:pageopacity="0.0"
     inkscape:pageshadow="2"
     inkscape:zoom="0.7"
     inkscape:cx="-252.74256"
     inkscape:cy="317.06981"
     inkscape:document-units="mm"
     inkscape:current-layer="layer1"
     showgrid="false"
     inkscape:object-nodes="false"
     inkscape:window-width="1920"
     inkscape:window-height="1016"
     inkscape:window-x="0"
     inkscape:window-y="27"
     inkscape:window-maximized="1"
     fit-margin-top="0"
     fit-margin-left="0"
     fit-margin-right="0"
     fit-margin-bottom="0" />
  <metadata
     id="metadata5">
    <rdf:RDF>
      <cc:Work
         rdf:about="">
        <dc:format>image/svg+xml</dc:format>
        <dc:type
           rdf:resource="http://purl.org/dc/dcmitype/StillImage" />
        <dc:title></dc:title>
      </cc:Work>
    </rdf:RDF>
  </metadata>
  <g
     inkscape:label="Ebene 1"
     inkscape:groupmode="layer"
     id="layer1"
     transform="translate(-7.1498788,-62.686385)">
    <path
       style="fill:#008000;stroke:#000000;stroke-width:0.52916092;stroke-linecap:butt;stroke-linejoin:miter;stroke-miterlimit:4;stroke-dasharray:none;stroke-opacity:1"
       d="m 16.660854,98.253254 c 0,0 -1.878948,8.367116 -8.5596484,10.446066 0,0 17.8739254,8.54541 40.7176124,0.96006 0,0 -5.392057,-3.53985 -8.538452,-11.349938 z"
       id="path107"
       inkscape:connector-curvature="0"
       sodipodi:nodetypes="ccccc"
       inkscape:export-filename="/home/johrpan/Projekte/jolakotturinn/assets/tree1.png"
       inkscape:export-xdpi="96"
       inkscape:export-ydpi="96" />
    <path
       inkscape:connector-curvature="0"
       id="path109"
       d="m 19.947127,88.82206 c 0,0 -1.6425,7.305677 -6.236966,9.000264 0,0 13.024918,6.480016 28.735029,0.297067 0,0 -4.090556,-2.885379 -6.254402,-9.251531 z"
       style="fill:#008000;stroke:#000000;stroke-width:0.52916092;stroke-linecap:butt;stroke-linejoin:miter;stroke-miterlimit:4;stroke-dasharray:none;stroke-opacity:1"
       sodipodi:nodetypes="ccccc"
       inkscape:export-filename="/home/johrpan/Projekte/jolakotturinn/assets/tree1.png"
       inkscape:export-xdpi="96"
       inkscape:export-ydpi="96" />
    <path
       style="fill:#008000;stroke:#000000;stroke-width:0.52916092;stroke-linecap:butt;stroke-linejoin:miter;stroke-miterlimit:4;stroke-dasharray:none;stroke-opacity:1"
       d="m 22.168052,82.206832 c 0,0 -1.296431,5.645016 -4.590647,6.958636 0,0 9.457585,5.041462 20.721675,0.248523 0,0 -2.932915,-2.236705 -4.484383,-7.171656 z"
       id="path111"
       inkscape:connector-curvature="0"
       inkscape:export-filename="/home/johrpan/Projekte/jolakotturinn/assets/tree1.png"
       inkscape:export-xdpi="96"
       inkscape:export-ydpi="96" />
    <path
       inkscape:connector-curvature="0"
       id="path113"
       d="m 23.7728,76.533749 c 0,0 -0.9664,4.840949 -3.422016,5.96746 0,0 7.04999,4.323364 15.446605,0.213123 0,0 -2.186289,-1.918112 -3.342804,-6.150137 z"
       style="fill:#008000;stroke:#000000;stroke-width:0.52916092;stroke-linecap:butt;stroke-linejoin:miter;stroke-miterlimit:4;stroke-dasharray:none;stroke-opacity:1"
       inkscape:export-filename="/home/johrpan/Projekte/jolakotturinn/assets/tree1.png"
       inkscape:export-xdpi="96"
       inkscape:export-ydpi="96" />
    <path
       style="fill:none;stroke:#000000;stroke-width:0.52916092;stroke-linecap:butt;stroke-linejoin:miter;stroke-miterlimit:4;stroke-dasharray:none;stroke-opacity:1"
       d="M 37.466051,70.83361 Z"
       id="path119"
       inkscape:connector-curvature="0"
       inkscape:export-filename="/home/johrpan/Projekte/jolakotturinn/assets/tree1.png"
       inkscape:export-xdpi="96"
       inkscape:export-ydpi="96" />
    <path
       style="fill:#ffffff;fill-opacity:1;stroke:#000000;stroke-width:0.52916092;stroke-miterlimit:4;stroke-dasharray:none;stroke-opacity:1"
       d="m 41.616333,97.262897 c 1.135174,0.06522 2.009539,1.218329 1.952928,2.575509 -0.05657,1.357184 -1.022698,2.404514 -2.15787,2.339244 -0.211729,-0.0132 -0.420422,-0.0654 -0.618691,-0.15483 -0.369562,0.52553 -0.922872,0.81505 -1.495977,0.78279 -0.241219,-0.0144 -0.477606,-0.0856 -0.695653,-0.20935 -0.319173,0.51422 -0.815865,0.80294 -1.33191,0.7742 -0.475544,-0.0279 -0.914687,-0.32258 -1.196723,-0.80314 -0.458819,0.63689 -1.1328,0.9852 -1.829077,0.94527 -0.610739,-0.0361 -1.183095,-0.36793 -1.588206,-0.92089 -0.378634,0.38527 -0.874077,0.58607 -1.381027,0.55972 -0.452289,0.9202 -1.267229,1.46211 -2.126495,1.4141 -0.828432,-0.0489 -1.572656,-0.63952 -1.959891,-1.55528 -0.312341,0.18322 -0.658273,0.26892 -1.005515,0.24912 -0.664265,-0.0389 -1.271278,0.17306 -1.629539,-0.49609 -0.68601,0.58024 -1.040361,0.68681 -1.819879,0.64206 -0.579414,-0.0343 -1.113837,-0.36996 -1.450235,-0.91086 -0.325839,0.15946 -0.67876,0.23229 -1.032609,0.21309 -0.671639,-0.0397 -1.297216,-0.40775 -1.719753,-1.0117 -0.386892,0.43838 -0.913487,0.67015 -1.453781,0.63984 -0.569218,-0.033 -1.097734,-0.35366 -1.446385,-0.8775 -0.250444,0.10558 -0.51552,0.15228 -0.780624,0.13755 -1.135174,-0.0652 -2.009537,-1.21834 -1.952926,-2.575514 0.05657,-1.357182 1.022698,-2.404509 2.157869,-2.339247 0.687554,0.04014 1.312165,0.488667 1.664301,1.195107 0.178693,-0.04989 0.362598,-0.07016 0.54624,-0.06021 0.441375,0.02554 0.86233,0.224483 1.193809,0.56419 0.467779,-0.737274 1.22582,-1.153867 2.01795,-1.109001 0.961129,0.05605 1.797599,0.778961 2.114223,1.82719 0.106788,-0.0155 0.214564,-0.02056 0.322154,-0.01514 0.571612,0.03348 0.999627,0.02756 1.337208,0.55649 0.57431,-0.518902 1.23339,-1.345834 2.136919,-1.294997 0.58118,0.03455 1.122515,0.361673 1.489963,0.900372 0.438098,-0.406253 0.973824,-0.611454 1.516591,-0.580911 0.343352,0.02085 0.678436,0.135504 0.981773,0.335922 0.325642,-0.217862 0.699849,-0.322649 1.07712,-0.301621 0.386374,0.02285 0.758358,0.17668 1.068595,0.441905 0.452446,-0.750685 1.185985,-1.176574 1.951725,-1.133161 0.884153,0.05216 1.661657,0.719844 1.993522,1.711951 0.285413,-0.24486 0.625613,-0.367068 0.969486,-0.348256 0.132897,0.0082 0.264342,0.03727 0.391251,0.08667 0.351831,-0.680561 0.984697,-1.079714 1.652608,-1.042312 0.09134,0.0059 0.182179,0.01992 0.27175,0.04198 0.390606,-0.778105 1.107196,-1.237033 1.864781,-1.194268 z"
       id="path937"
       inkscape:connector-curvature="0"
       sodipodi:nodetypes="ccccccccccccccccccccccccccccccccccccccccccccc"
       inkscape:export-filename="/home/johrpan/Projekte/jolakotturinn/assets/tree1.png"
       inkscape:export-xdpi="96"
       inkscape:export-ydpi="96" />
    <path
       style="fill:#008000;stroke:#000000;stroke-width:0.52916092;stroke-linecap:butt;stroke-linejoin:miter;stroke-miterlimit:4;stroke-dasharray:none;stroke-opacity:1"
       d="m 27.850048,63.086065 c 0,0 0.393164,11.397644 -6.181366,13.578472 5.015957,1.338594 7.485596,1.27362 12.130938,0.193667 -6.84586,-2.911193 -5.949572,-13.772139 -5.949572,-13.772139 z"
       id="path970"
       inkscape:connector-curvature="0"
       sodipodi:nodetypes="cccc"
       inkscape:export-filename="/home/johrpan/Projekte/jolakotturinn/assets/tree1.png"
       inkscape:export-xdpi="96"
       inkscape:export-ydpi="96" />
    <path
       id="path960"
       d="m 21.779307,75.761012 c -0.507853,-8e-6 -0.919552,0.507064 -0.919544,1.132565 -7e-6,0.625501 0.411691,1.132572 0.919544,1.132564 0.09474,-4.66e-4 0.188853,-0.01897 0.279008,-0.05484 0.155159,0.251386 0.396718,0.399126 0.6531,0.399441 0.107927,-2.68e-4 0.214754,-0.02674 0.314374,-0.07787 0.13288,0.244868 0.349185,0.390735 0.580035,0.391159 0.212758,-2.46e-4 0.414236,-0.124145 0.549057,-0.337647 0.192921,0.304954 0.487242,0.482911 0.798742,0.482951 0.27325,-4.37e-4 0.534873,-0.1379 0.725969,-0.381441 0.161818,0.18715 0.379203,0.292568 0.605949,0.293851 0.184735,0.435032 0.538365,0.705735 0.922758,0.706368 0.370647,-6.1e-4 0.713794,-0.252481 0.903663,-0.663292 0.135991,0.09249 0.28879,0.141032 0.444135,0.141105 0.297191,-3.32e-4 0.241275,0.03256 0.748279,-0.09924 0.268972,0.232539 0.439774,0.257486 0.788513,0.257515 0.259235,-4.57e-4 0.504001,-0.140665 0.664207,-0.380482 0.142457,0.08193 0.298613,0.124746 0.456896,0.125267 0.300497,-5.16e-4 0.586548,-0.153193 0.786372,-0.419716 0.164514,0.211784 0.395224,0.332262 0.636927,0.332605 0.254662,-1.39e-4 0.49651,-0.1336 0.661867,-0.365242 0.10981,0.05516 0.227247,0.08364 0.34584,0.08387 0.507853,8e-6 0.919548,-0.507063 0.919541,-1.132564 7e-6,-0.625502 -0.411688,-1.132571 -0.919541,-1.132563 -0.307609,2.87e-4 -0.594726,0.190003 -0.765036,0.505507 -0.07882,-0.02765 -0.160524,-0.04184 -0.242671,-0.0421 -0.197465,7.9e-5 -0.389044,0.08043 -0.543308,0.227857 -0.195052,-0.351345 -0.525621,-0.56292 -0.879991,-0.563224 -0.430004,3.74e-4 -0.816782,0.31065 -0.977604,0.784241 -0.264894,-0.08483 -0.528351,-0.08204 -0.528351,-0.08204 -0.255739,2.87e-4 -0.33033,0.265239 -0.658166,-0.240928 0,0 -0.08957,-0.123369 -0.493774,-0.123871 -0.260029,5.27e-4 -0.50772,0.136628 -0.681741,0.374602 -0.187968,-0.198364 -0.423247,-0.30687 -0.666057,-0.307169 -0.15363,5.14e-4 -0.305315,0.04438 -0.444428,0.128508 -0.141281,-0.108774 -0.306344,-0.166841 -0.475115,-0.167143 -0.172867,2.95e-4 -0.341751,0.06119 -0.485148,0.174941 -0.187961,-0.357107 -0.50742,-0.572306 -0.849985,-0.57258 -0.395577,6.16e-4 -0.755012,0.287061 -0.921588,0.734443 -0.122827,-0.120123 -0.272388,-0.185302 -0.426211,-0.18574 -0.05946,2.34e-4 -0.118673,0.01015 -0.176232,0.02952 -0.14436,-0.322206 -0.419386,-0.522454 -0.718177,-0.522906 -0.04088,2.91e-4 -0.08167,0.0044 -0.122065,0.01211 -0.15985,-0.368078 -0.47113,-0.59802 -0.810043,-0.598376 z"
       style="fill:#ffffff;fill-opacity:1;stroke:#000000;stroke-width:0.52916092;stroke-miterlimit:4;stroke-dasharray:none;stroke-opacity:1"
       inkscape:connector-curvature="0"
       sodipodi:nodetypes="ccccccccccccccccccccccccccccccccccccccccccccc"
       inkscape:export-filename="/home/johrpan/Projekte/jolakotturinn/assets/tree1.png"
       inkscape:export-xdpi="96"
       inkscape:export-ydpi="96" />
    <path
       inkscape:connector-curvature="0"
       style="fill:#ffffff;fill-opacity:1;stroke:#000000;stroke-width:0.52916092;stroke-miterlimit:4;stroke-dasharray:none;stroke-opacity:1"
       d="m 35.458634,81.756204 c 0.638227,0.01534 1.142907,0.685762 1.127224,1.497408 -0.01567,0.811648 -0.545757,1.457173 -1.183983,1.441809 -0.119051,-0.0035 -0.236863,-0.03031 -0.349264,-0.07959 -0.201288,0.321506 -0.508562,0.505908 -0.83077,0.498567 -0.135626,-0.0036 -0.269213,-0.04118 -0.393128,-0.110551 -0.173128,0.31372 -0.448617,0.496462 -0.738741,0.490031 -0.267371,-0.0068 -0.517467,-0.173615 -0.681546,-0.454726 -0.250091,0.389871 -0.624429,0.61189 -1.015896,0.602526 -0.343387,-0.0089 -0.668729,-0.19511 -0.902781,-0.516903 -0.208049,0.237951 -0.483881,0.368171 -0.768871,0.362979 -0.24306,0.558912 -0.694256,0.899484 -1.177345,0.888682 -0.465783,-0.012 -0.890709,-0.349197 -1.119027,-0.888005 -0.17322,0.115901 -0.366461,0.174274 -0.561689,0.169673 -0.373477,-0.0095 -0.530022,0.128699 -0.739144,-0.263455 -0.429162,0.198087 -0.757869,0.432862 -1.196135,0.422356 -0.325775,-0.0085 -0.629861,-0.197764 -0.825185,-0.513791 -0.181081,0.102009 -0.378399,0.152842 -0.577329,0.148733 -0.377627,-0.0098 -0.733288,-0.216516 -0.977729,-0.568396 -0.212056,0.269838 -0.505013,0.419194 -0.808773,0.412332 -0.320035,-0.0079 -0.620627,-0.188371 -0.822628,-0.493945 -0.139383,0.06826 -0.287682,0.101663 -0.436724,0.09838 -0.638227,-0.01534 -1.142908,-0.685762 -1.127226,-1.497408 0.01567,-0.811645 0.545758,-1.457172 1.183984,-1.441808 0.38657,0.0097 0.742642,0.26453 0.948767,0.679072 0.09974,-0.03351 0.202783,-0.04944 0.306025,-0.04732 0.248155,0.0061 0.486904,0.116122 0.677076,0.312092 0.253931,-0.450006 0.67466,-0.71455 1.120012,-0.704231 0.540384,0.01349 1.018682,0.427789 1.208919,1.04718 0.05978,-0.01148 0.333216,-0.169697 0.3937,-0.168702 0.321384,0.0081 0.314363,0.0041 0.604861,0.04229 0.160082,-0.614343 0.61631,-0.414174 1.124288,-0.402603 0.326769,0.0086 0.634637,0.192636 0.847371,0.50669 0.241191,-0.251713 0.539591,-0.385395 0.84474,-0.378445 0.193058,0.0053 0.382583,0.06681 0.555301,0.180188 0.180277,-0.136874 0.389168,-0.207233 0.601273,-0.20252 0.217239,0.0056 0.42795,0.08974 0.60531,0.24167 0.245163,-0.4577 0.652026,-0.727283 1.08254,-0.717281 0.497113,0.01276 0.941642,0.395316 1.139772,0.980874 0.157368,-0.152161 0.346957,-0.232215 0.54028,-0.228133 0.07473,0.0021 0.148883,0.01675 0.220734,0.04363 0.189494,-0.413729 0.540141,-0.665255 0.915647,-0.65681 0.05136,0.0016 0.102539,0.0081 0.153099,0.01941 0.210109,-0.472788 0.607063,-0.76175 1.032991,-0.751965 z"
       id="path962"
       sodipodi:nodetypes="ccccccccccccccccccccccccccccccccccccccccccccc"
       inkscape:export-filename="/home/johrpan/Projekte/jolakotturinn/assets/tree1.png"
       inkscape:export-xdpi="96"
       inkscape:export-ydpi="96" />
    <path
       id="path964"
       d="m 17.535615,88.322085 c -0.90006,-1.3e-5 -1.629705,0.788046 -1.629692,1.760163 -1.3e-5,0.972118 0.729632,1.760177 1.629692,1.760164 0.167908,-7.22e-4 0.334704,-0.02946 0.494485,-0.08522 0.274986,0.390688 0.7031,0.620295 1.157482,0.620783 0.191276,-4.15e-4 0.380603,-0.04154 0.557157,-0.121024 0.235502,0.380561 0.618855,0.607262 1.027989,0.607919 0.377068,-3.81e-4 0.734145,-0.192939 0.973082,-0.524749 0.341913,0.473939 0.863536,0.75051 1.415602,0.750572 0.484276,-6.79e-4 0.94795,-0.214316 1.286625,-0.592811 0.286788,0.290857 0.672056,0.454691 1.073916,0.456683 0.327402,0.676103 0.954136,1.096813 1.635387,1.097795 0.656894,-9.49e-4 1.265047,-0.39239 1.60155,-1.03085 0.241016,0.143739 0.511817,0.219186 0.787135,0.219298 0.526709,-5.15e-4 0.847294,-0.117619 1.282897,-0.392818 0.224628,0.594135 0.822672,0.63874 1.440738,0.638783 0.45944,-7.07e-4 0.893233,-0.218614 1.177163,-0.591321 0.252473,0.127334 0.529227,0.193872 0.809751,0.194683 0.532568,-8.04e-4 1.03953,-0.238085 1.393672,-0.6523 0.291568,0.329145 0.700453,0.516383 1.128821,0.516916 0.451333,-2.17e-4 0.879959,-0.207635 1.173017,-0.567639 0.194617,0.08574 0.402749,0.129997 0.612929,0.13035 0.900059,1.3e-5 1.629704,-0.788047 1.629691,-1.760164 1.3e-5,-0.972117 -0.729632,-1.760178 -1.629691,-1.760165 -0.545172,4.48e-4 -1.054027,0.295297 -1.355862,0.785632 -0.139702,-0.04298 -0.284498,-0.06503 -0.430084,-0.06546 -0.349964,1.24e-4 -0.689498,0.124993 -0.962899,0.354122 -0.345689,-0.546042 -0.931547,-0.874857 -1.559594,-0.875328 -0.76209,5.81e-4 -1.447572,0.482793 -1.732593,1.218819 -0.08397,-0.01547 -0.169039,-0.02352 -0.254321,-0.02407 -0.453243,4.48e-4 -1.013824,0.121247 -1.392945,0.179433 -0.421899,-0.56359 -0.614332,-0.849039 -1.33069,-0.849819 -0.460845,8.19e-4 -0.899824,0.212338 -1.208241,0.582184 -0.333131,-0.308285 -0.750115,-0.476917 -1.180444,-0.477383 -0.272275,8e-4 -0.541104,0.06895 -0.787651,0.199719 -0.250393,-0.16905 -0.542928,-0.259295 -0.842039,-0.259766 -0.306372,4.62e-4 -0.605681,0.09511 -0.859823,0.271886 -0.333121,-0.554995 -0.899293,-0.889445 -1.506415,-0.889871 -0.701076,9.59e-4 -1.338095,0.446134 -1.633319,1.141429 -0.217682,-0.186692 -0.482745,-0.287987 -0.755365,-0.288669 -0.10539,3.67e-4 -0.21032,0.01578 -0.312334,0.04588 -0.255847,-0.500754 -0.743271,-0.811967 -1.272812,-0.81267 -0.07244,4.53e-4 -0.144759,0.0068 -0.216337,0.01883 -0.283302,-0.572048 -0.834978,-0.92941 -1.43563,-0.929963 z"
       style="fill:#ffffff;fill-opacity:1;stroke:#000000;stroke-width:0.52916092;stroke-miterlimit:4;stroke-dasharray:none;stroke-opacity:1"
       inkscape:connector-curvature="0"
       sodipodi:nodetypes="ccccccccccccccccccccccccccccccccccccccccccccc"
       inkscape:export-filename="/home/johrpan/Projekte/jolakotturinn/assets/tree1.png"
       inkscape:export-xdpi="96"
       inkscape:export-ydpi="96" />
    <path
       id="path966"
       d="m 10.219372,106.52386 c -1.5491208,-2e-5 -2.8049361,1.2642 -2.8049127,2.82366 -2.34e-5,1.55948 1.2557919,2.82369 2.8049127,2.82367 0.288993,-9.9e-4 0.576071,-0.0473 0.851073,-0.13672 0.473285,0.62675 1.210122,0.99508 1.992174,0.99586 0.329214,-6.6e-4 0.65507,-0.0666 0.958942,-0.19414 0.40533,0.61049 1.065131,0.97417 1.769303,0.97522 0.648983,-5.9e-4 1.263561,-0.3095 1.674805,-0.8418 0.588476,0.7603 1.486257,1.20398 2.436436,1.20408 0.833503,-10e-4 1.631546,-0.34381 2.214449,-0.951 0.493601,0.4666 1.156695,0.72943 1.84835,0.73262 0.563507,1.0846 1.642196,1.7595 2.81472,1.76108 1.1306,-0.002 2.177309,-0.62946 2.756476,-1.6537 0.414818,0.2306 0.880905,0.35162 1.354762,0.3518 0.906533,-8.2e-4 1.790242,0.12307 2.315967,-0.62039 0.38661,0.95312 1.307992,1.01492 2.371764,1.01498 0.790757,-9.9e-4 1.537372,-0.35071 2.026052,-0.9486 0.434541,0.20427 0.910871,0.31101 1.39369,0.31231 0.916619,-9.9e-4 1.789171,-0.38195 2.398695,-1.04642 0.501824,0.52801 1.205568,0.82839 1.942844,0.82924 0.776806,-3.5e-4 1.514529,-0.3331 2.018919,-0.91062 0.334958,0.13754 0.693181,0.20854 1.054926,0.20911 1.549122,2e-5 2.804936,-1.26419 2.804913,-2.82367 1.8e-5,-1.55946 -1.255795,-2.82368 -2.804913,-2.82366 -0.938311,7.3e-4 -1.814114,0.47372 -2.333613,1.26033 -0.240442,-0.0689 -0.489657,-0.10431 -0.740232,-0.10501 -0.602334,2e-4 -1.186715,0.20052 -1.657273,0.56808 -0.594977,-0.87597 -1.603318,-1.40345 -2.684266,-1.4042 -1.311661,9.3e-4 -2.491465,0.7745 -2.982021,1.95525 -0.1445,-0.0248 -0.290937,-0.0378 -0.437721,-0.0387 -0.780088,7.2e-4 -1.685346,-0.0255 -2.174952,0.5586 -0.359593,-1.18723 -1.279832,-1.63279 -2.512779,-1.63404 -0.793176,9.9e-4 -1.548717,0.34062 -2.07954,0.93394 -0.573362,-0.49455 -1.291046,-0.76508 -2.031698,-0.76581 -0.468622,9.8e-4 -0.931312,0.11061 -1.355653,0.32038 -0.43096,-0.2712 -0.934452,-0.41597 -1.449261,-0.41672 -0.527305,7.3e-4 -1.042455,0.15257 -1.479866,0.43616 -0.573341,-0.89032 -1.5478,-1.42685 -2.592739,-1.42753 -1.206643,0.002 -2.303038,0.71569 -2.811157,1.83109 -0.374659,-0.29951 -0.830869,-0.462 -1.300084,-0.46309 -0.181388,5.9e-4 -0.361988,0.0253 -0.537565,0.0736 -0.440343,-0.80332 -1.279265,-1.30258 -2.19068,-1.3037 -0.124686,7.2e-4 -0.249147,0.0109 -0.372344,0.0302 -0.487594,-0.91768 -1.437102,-1.49096 -2.470903,-1.49185 z"
       style="fill:#ffffff;fill-opacity:1;stroke:#000000;stroke-width:0.52916092;stroke-miterlimit:4;stroke-dasharray:none;stroke-opacity:1"
       inkscape:connector-curvature="0"
       sodipodi:nodetypes="ccccccccccccccccccccccccccccccccccccccccccccc"
       inkscape:export-filename="/home/johrpan/Projekte/jolakotturinn/assets/tree1.png"
       inkscape:export-xdpi="96"
       inkscape:export-ydpi="96" />
    <path
       sodipodi:nodetypes="ccccc"
       inkscape:connector-curvature="0"
       id="path1014"
       d="m 73.357225,97.883364 c 0,0 -1.878949,8.363256 -8.559651,10.441266 0,0 17.873929,8.54148 40.717626,0.95961 0,0 -5.39208,-3.53822 -8.538454,-11.344715 z"
       style="fill:#008000;stroke:#000000;stroke-width:0.52916056;stroke-linecap:butt;stroke-linejoin:miter;stroke-miterlimit:4;stroke-dasharray:none;stroke-opacity:1"
       inkscape:export-filename="/home/johrpan/Projekte/jolakotturinn/assets/tree2.png"
       inkscape:export-xdpi="96"
       inkscape:export-ydpi="96" />
    <path
       sodipodi:nodetypes="ccccc"
       style="fill:#008000;stroke:#000000;stroke-width:0.52916056;stroke-linecap:butt;stroke-linejoin:miter;stroke-miterlimit:4;stroke-dasharray:none;stroke-opacity:1"
       d="m 76.643498,88.456503 c 0,0 -1.6425,7.30232 -6.236967,8.996128 0,0 13.02492,6.477039 28.735035,0.296931 0,0 -4.090558,-2.884054 -6.254403,-9.247281 z"
       id="path1016"
       inkscape:connector-curvature="0"
       inkscape:export-filename="/home/johrpan/Projekte/jolakotturinn/assets/tree2.png"
       inkscape:export-xdpi="96"
       inkscape:export-ydpi="96" />
    <path
       inkscape:connector-curvature="0"
       id="path1018"
       d="m 78.864424,81.844314 c 0,0 -1.296432,5.642422 -4.590648,6.955439 0,0 9.457586,5.039146 20.721678,0.248409 0,0 -2.932915,-2.235677 -4.484382,-7.16836 z"
       style="fill:#008000;stroke:#000000;stroke-width:0.52916056;stroke-linecap:butt;stroke-linejoin:miter;stroke-miterlimit:4;stroke-dasharray:none;stroke-opacity:1"
       inkscape:export-filename="/home/johrpan/Projekte/jolakotturinn/assets/tree2.png"
       inkscape:export-xdpi="96"
       inkscape:export-ydpi="96" />
    <path
       style="fill:#008000;stroke:#000000;stroke-width:0.52916056;stroke-linecap:butt;stroke-linejoin:miter;stroke-miterlimit:4;stroke-dasharray:none;stroke-opacity:1"
       d="m 80.469172,76.173839 c 0,0 -0.966401,4.838725 -3.422016,5.964718 0,0 7.04999,4.321377 15.446608,0.213024 0,0 -2.18629,-1.917231 -3.342805,-6.14731 z"
       id="path1020"
       inkscape:connector-curvature="0"
       inkscape:export-filename="/home/johrpan/Projekte/jolakotturinn/assets/tree2.png"
       inkscape:export-xdpi="96"
       inkscape:export-ydpi="96" />
    <path
       inkscape:connector-curvature="0"
       id="path1022"
       d="M 94.162427,70.476319 Z"
       style="fill:none;stroke:#000000;stroke-width:0.52916056;stroke-linecap:butt;stroke-linejoin:miter;stroke-miterlimit:4;stroke-dasharray:none;stroke-opacity:1"
       inkscape:export-filename="/home/johrpan/Projekte/jolakotturinn/assets/tree2.png"
       inkscape:export-xdpi="96"
       inkscape:export-ydpi="96" />
    <path
       sodipodi:nodetypes="ccccccccccccccccccccccccccccccccccccccccccccc"
       inkscape:connector-curvature="0"
       id="path1024"
       d="m 98.312708,96.893461 c 1.135174,0.06519 2.009532,1.217769 1.952922,2.574326 -0.0566,1.356553 -1.022695,2.403403 -2.15786,2.338163 -0.211737,-0.0132 -0.420424,-0.0654 -0.618691,-0.15476 -0.369565,0.52529 -0.922879,0.81468 -1.495981,0.78243 -0.241217,-0.0144 -0.477607,-0.0856 -0.695653,-0.20925 -0.319174,0.51399 -0.815866,0.80257 -1.33191,0.77384 -0.475543,-0.0279 -0.914687,-0.32242 -1.196724,-0.80277 -0.458819,0.6366 -1.1328,0.98475 -1.829077,0.94484 -0.610739,-0.0361 -1.183095,-0.36776 -1.588205,-0.92047 -0.378636,0.3851 -0.874079,0.5858 -1.381028,0.55946 -0.45229,0.91978 -1.26723,1.46145 -2.126496,1.41346 -0.828432,-0.0489 -1.572656,-0.63923 -1.959891,-1.55456 -0.312341,0.18312 -0.658273,0.26878 -1.005516,0.24899 -0.664265,-0.0389 -1.271278,0.17298 -1.629539,-0.49586 -0.68601,0.57997 -1.040361,0.68649 -1.81988,0.64177 -0.579414,-0.0343 -1.113836,-0.36978 -1.450235,-0.91044 -0.325838,0.15938 -0.67876,0.23218 -1.032609,0.21299 -0.671639,-0.0397 -1.297216,-0.40756 -1.719752,-1.01125 -0.386892,0.43819 -0.913487,0.66985 -1.453782,0.63956 -0.569218,-0.033 -1.097735,-0.3535 -1.446387,-0.8771 -0.250442,0.10553 -0.515519,0.15221 -0.780623,0.13749 -1.135174,-0.0652 -2.009538,-1.21778 -1.952927,-2.574327 0.05657,-1.356558 1.022699,-2.403404 2.15787,-2.338173 0.687555,0.04012 1.312164,0.488443 1.664301,1.194558 0.178695,-0.04987 0.362598,-0.07013 0.546241,-0.06018 0.441375,0.02553 0.86233,0.22438 1.193809,0.563931 0.467779,-0.736935 1.22582,-1.153337 2.01795,-1.108492 0.96113,0.05602 1.797599,0.778603 2.114223,1.826351 0.106789,-0.01549 0.214564,-0.02055 0.322154,-0.01513 0.571613,0.03347 0.999628,0.02755 1.337208,0.556233 0.574311,-0.518662 1.233391,-1.345215 2.13692,-1.294401 0.581181,0.03453 1.122516,0.361508 1.489965,0.899958 0.438097,-0.406065 0.973824,-0.611173 1.51659,-0.580644 0.343352,0.02084 0.678436,0.135442 0.981773,0.335768 0.325643,-0.217762 0.69985,-0.322501 1.077121,-0.301483 0.386373,0.02284 0.758357,0.1766 1.068595,0.441703 0.452446,-0.75034 1.185985,-1.176034 1.951726,-1.132641 0.884152,0.05214 1.661657,0.719514 1.993522,1.711165 0.285412,-0.244747 0.625613,-0.3669 0.969486,-0.348097 0.132897,0.0082 0.264342,0.03725 0.391252,0.08663 0.35183,-0.680249 0.984695,-1.079218 1.652605,-1.041833 0.0913,0.0059 0.182178,0.01991 0.271747,0.04196 0.390614,-0.777748 1.107206,-1.236465 1.864786,-1.19372 z"
       style="fill:#ffffff;fill-opacity:1;stroke:#000000;stroke-width:0.52916056;stroke-miterlimit:4;stroke-dasharray:none;stroke-opacity:1"
       inkscape:export-filename="/home/johrpan/Projekte/jolakotturinn/assets/tree2.png"
       inkscape:export-xdpi="96"
       inkscape:export-ydpi="96" />
    <path
       sodipodi:nodetypes="cccc"
       inkscape:connector-curvature="0"
       id="path1026"
       d="m 84.546421,62.732335 c 0,0 0.393165,11.392406 -6.181367,13.572231 5.015957,1.337979 7.485597,1.273036 12.13094,0.193579 -6.845861,-2.909856 -5.949573,-13.76581 -5.949573,-13.76581 z"
       style="fill:#008000;stroke:#000000;stroke-width:0.52916056;stroke-linecap:butt;stroke-linejoin:miter;stroke-miterlimit:4;stroke-dasharray:none;stroke-opacity:1"
       inkscape:export-filename="/home/johrpan/Projekte/jolakotturinn/assets/tree2.png"
       inkscape:export-xdpi="96"
       inkscape:export-ydpi="96" />
    <path
       sodipodi:nodetypes="ccccccccccccccccccccccccccccccccccccccccccccc"
       inkscape:connector-curvature="0"
       style="fill:#ffffff;fill-opacity:1;stroke:#000000;stroke-width:0.52916056;stroke-miterlimit:4;stroke-dasharray:none;stroke-opacity:1"
       d="m 78.475678,75.401457 c -0.507853,-8e-6 -0.919552,0.506831 -0.919544,1.132045 -7e-6,0.625212 0.411691,1.132051 0.919544,1.132043 0.09474,-4.66e-4 0.188854,-0.01896 0.279008,-0.05481 0.155159,0.251271 0.396719,0.398943 0.653101,0.399258 0.107927,-2.68e-4 0.214753,-0.02673 0.314374,-0.07783 0.132879,0.244756 0.349185,0.390557 0.580035,0.39098 0.212757,-2.46e-4 0.414236,-0.124088 0.549057,-0.337492 0.192922,0.304813 0.487242,0.482689 0.798742,0.482729 0.27325,-4.36e-4 0.534874,-0.137836 0.725969,-0.381266 0.161818,0.187064 0.379203,0.292433 0.60595,0.293716 0.184735,0.434832 0.538365,0.70541 0.922758,0.706043 0.370646,-6.1e-4 0.713794,-0.252364 0.903663,-0.662987 0.135991,0.09245 0.28879,0.140968 0.444135,0.141041 0.297191,-3.32e-4 0.241274,0.03254 0.748279,-0.09919 0.268973,0.232431 0.439774,0.257367 0.788513,0.257396 0.259236,-4.57e-4 0.504002,-0.1406 0.664207,-0.380308 0.142457,0.08189 0.298613,0.12469 0.456897,0.125211 0.300497,-5.16e-4 0.586548,-0.153123 0.786372,-0.419525 0.164514,0.211687 0.395224,0.33211 0.636927,0.332453 0.254662,-1.39e-4 0.49651,-0.133539 0.661866,-0.365074 0.109811,0.05514 0.227248,0.0836 0.34584,0.08383 0.507854,8e-6 0.919549,-0.50683 0.919542,-1.132043 7e-6,-0.625214 -0.411688,-1.132051 -0.919542,-1.132043 -0.307607,2.86e-4 -0.594725,0.189916 -0.765035,0.505276 -0.07882,-0.02764 -0.160524,-0.04182 -0.242671,-0.04208 -0.197465,7.9e-5 -0.389044,0.08039 -0.543308,0.227753 -0.195053,-0.351184 -0.525621,-0.562663 -0.879991,-0.562966 -0.430004,3.73e-4 -0.816783,0.310507 -0.977604,0.783881 -0.264895,-0.08479 -0.528352,-0.082 -0.528352,-0.082 -0.255739,2.87e-4 -0.33033,0.265117 -0.658166,-0.240818 0,0 -0.08957,-0.123312 -0.493774,-0.123814 -0.260029,5.27e-4 -0.50772,0.136565 -0.681741,0.37443 -0.187968,-0.198272 -0.423247,-0.306728 -0.666057,-0.307027 -0.153631,5.14e-4 -0.305315,0.04436 -0.444428,0.128449 -0.141282,-0.108725 -0.306344,-0.166765 -0.475115,-0.167067 -0.172867,2.95e-4 -0.341752,0.06116 -0.485148,0.174861 -0.187962,-0.356943 -0.507421,-0.572043 -0.849986,-0.572317 -0.395577,6.16e-4 -0.755012,0.28693 -0.921588,0.734105 -0.122827,-0.120068 -0.272388,-0.185216 -0.426211,-0.185654 -0.05946,2.34e-4 -0.118673,0.01014 -0.176232,0.02951 -0.144361,-0.322058 -0.419386,-0.522214 -0.718177,-0.522666 -0.04088,2.91e-4 -0.08167,0.0044 -0.122066,0.01211 -0.15985,-0.367908 -0.47113,-0.597745 -0.810043,-0.598101 z"
       id="path1028"
       inkscape:export-filename="/home/johrpan/Projekte/jolakotturinn/assets/tree2.png"
       inkscape:export-xdpi="96"
       inkscape:export-ydpi="96" />
    <path
       sodipodi:nodetypes="ccccccccccccccccccccccccccccccccccccccccccccc"
       id="path1030"
       d="m 92.155009,81.393894 c 0.638227,0.01533 1.142907,0.685446 1.127224,1.49672 -0.01567,0.811275 -0.545758,1.456503 -1.183983,1.441146 -0.119052,-0.0035 -0.236864,-0.0303 -0.349264,-0.07955 -0.201288,0.321359 -0.508562,0.505675 -0.830771,0.498338 -0.135626,-0.0036 -0.269214,-0.04116 -0.393128,-0.110501 -0.173129,0.313576 -0.448616,0.496234 -0.73874,0.489806 -0.267372,-0.0068 -0.517469,-0.173535 -0.681547,-0.454517 -0.250091,0.389692 -0.62443,0.611609 -1.015896,0.602249 -0.343388,-0.0089 -0.668729,-0.19502 -0.902782,-0.516666 -0.208048,0.237843 -0.483881,0.368003 -0.768871,0.362813 -0.24306,0.558655 -0.694256,0.89907 -1.177344,0.888273 -0.465785,-0.01199 -0.890711,-0.349037 -1.119029,-0.887596 -0.173219,0.115847 -0.366461,0.174193 -0.561689,0.169594 -0.373477,-0.0095 -0.530022,0.12864 -0.739144,-0.263333 -0.429162,0.197996 -0.757869,0.432663 -1.196135,0.422162 -0.325775,-0.0085 -0.629861,-0.197674 -0.825185,-0.513556 -0.181081,0.101963 -0.378399,0.152773 -0.57733,0.148666 -0.377626,-0.0098 -0.733288,-0.216417 -0.977729,-0.568135 -0.212055,0.269713 -0.505012,0.419 -0.808772,0.412141 -0.320036,-0.0079 -0.620628,-0.188283 -0.822629,-0.493717 -0.139383,0.06823 -0.287682,0.101616 -0.436725,0.09834 -0.638227,-0.01533 -1.142907,-0.685446 -1.127225,-1.49672 0.01567,-0.811273 0.545758,-1.456502 1.183984,-1.441145 0.38657,0.0097 0.742642,0.264408 0.948767,0.67876 0.09974,-0.0335 0.202784,-0.04942 0.306025,-0.0473 0.248156,0.0061 0.486905,0.11607 0.677077,0.31195 0.253931,-0.4498 0.67466,-0.714222 1.120011,-0.703908 0.540385,0.01348 1.018682,0.427593 1.20892,1.0467 0.05978,-0.01148 0.333217,-0.16962 0.3937,-0.168626 0.321385,0.0081 0.314364,0.0041 0.604862,0.04227 0.160081,-0.614061 0.616309,-0.413984 1.124287,-0.402419 0.32677,0.0086 0.634638,0.192548 0.847371,0.506458 0.241191,-0.251597 0.539591,-0.385219 0.844741,-0.378271 0.193057,0.0053 0.382583,0.06678 0.5553,0.180105 0.180278,-0.136812 0.38917,-0.207138 0.601274,-0.202427 0.21724,0.0056 0.42795,0.0897 0.60531,0.241558 0.245163,-0.457489 0.652027,-0.726949 1.082541,-0.716951 0.497113,0.01275 0.941642,0.395135 1.139772,0.980423 0.157368,-0.152091 0.346956,-0.232107 0.54028,-0.228027 0.07473,0.0021 0.148882,0.01674 0.220734,0.04361 0.189494,-0.41354 0.540141,-0.66495 0.915647,-0.656509 0.05136,0.0016 0.102539,0.0081 0.1531,0.0194 0.210108,-0.472572 0.607062,-0.7614 1.032991,-0.75162 z"
       style="fill:#ffffff;fill-opacity:1;stroke:#000000;stroke-width:0.52916056;stroke-miterlimit:4;stroke-dasharray:none;stroke-opacity:1"
       inkscape:connector-curvature="0"
       inkscape:export-filename="/home/johrpan/Projekte/jolakotturinn/assets/tree2.png"
       inkscape:export-xdpi="96"
       inkscape:export-ydpi="96" />
    <path
       sodipodi:nodetypes="ccccccccccccccccccccccccccccccccccccccccccccc"
       inkscape:connector-curvature="0"
       style="fill:#ffffff;fill-opacity:1;stroke:#000000;stroke-width:0.52916056;stroke-miterlimit:4;stroke-dasharray:none;stroke-opacity:1"
       d="m 74.231987,87.956757 c -0.900061,-1.3e-5 -1.629707,0.787684 -1.629694,1.759354 -1.3e-5,0.971672 0.729633,1.75937 1.629694,1.759357 0.167907,-7.22e-4 0.334703,-0.02945 0.494484,-0.08518 0.274986,0.390509 0.703099,0.62001 1.157482,0.620498 0.191276,-4.15e-4 0.380604,-0.04152 0.557157,-0.120968 0.235502,0.380385 0.618855,0.606983 1.027989,0.607639 0.377068,-3.8e-4 0.734146,-0.192851 0.973083,-0.524508 0.341913,0.473722 0.863535,0.750165 1.415601,0.750227 0.484276,-6.78e-4 0.947951,-0.214217 1.286626,-0.592538 0.286788,0.290722 0.672056,0.454482 1.073916,0.456473 0.327402,0.675792 0.954137,1.096309 1.635388,1.097291 0.656895,-9.49e-4 1.265047,-0.392211 1.60155,-1.030377 0.241016,0.143673 0.511818,0.219085 0.787136,0.219197 0.526708,-5.15e-4 0.847293,-0.117565 1.282896,-0.392637 0.224628,0.593862 0.822673,0.638447 1.440738,0.63849 0.459442,-7.07e-4 0.893234,-0.218515 1.177164,-0.59105 0.252474,0.127276 0.529227,0.193783 0.809751,0.194594 0.532569,-8.04e-4 1.03953,-0.237976 1.393672,-0.652 0.291569,0.328993 0.700454,0.516145 1.128822,0.516678 0.451333,-2.17e-4 0.879959,-0.20754 1.173018,-0.567378 0.194614,0.0857 0.402747,0.129937 0.612927,0.13029 0.900059,1.3e-5 1.629709,-0.787685 1.629689,-1.759355 2e-5,-0.971671 -0.72963,-1.759369 -1.629689,-1.759356 -0.545171,4.48e-4 -1.054025,0.295161 -1.355861,0.78527 -0.139702,-0.04296 -0.284498,-0.065 -0.430084,-0.06543 -0.349964,1.24e-4 -0.689498,0.124936 -0.962899,0.353959 -0.34569,-0.54579 -0.931548,-0.874455 -1.559595,-0.874925 -0.76209,5.8e-4 -1.447572,0.482571 -1.732593,1.218259 -0.08397,-0.01546 -0.169039,-0.02351 -0.254322,-0.02406 -0.453242,4.48e-4 -1.013823,0.121191 -1.392945,0.17935 -0.421899,-0.56333 -0.614332,-0.848648 -1.330689,-0.849428 -0.460846,8.18e-4 -0.899825,0.21224 -1.208242,0.581917 -0.333132,-0.308143 -0.750115,-0.476699 -1.180444,-0.477164 -0.272275,7.99e-4 -0.541105,0.06892 -0.787652,0.199627 -0.250392,-0.168972 -0.542928,-0.259176 -0.842039,-0.259647 -0.306372,4.62e-4 -0.605681,0.09507 -0.859824,0.271762 -0.33312,-0.554741 -0.899292,-0.889036 -1.506415,-0.889462 -0.701075,9.59e-4 -1.338095,0.445928 -1.633319,1.140904 -0.217681,-0.186606 -0.482745,-0.287854 -0.755365,-0.288536 -0.10539,3.67e-4 -0.21032,0.01577 -0.312334,0.04586 -0.255846,-0.500524 -0.743271,-0.811595 -1.272812,-0.812298 -0.07244,4.53e-4 -0.14476,0.0068 -0.216338,0.01882 -0.283301,-0.571785 -0.834976,-0.928984 -1.435628,-0.929537 z"
       id="path1032"
       inkscape:export-filename="/home/johrpan/Projekte/jolakotturinn/assets/tree2.png"
       inkscape:export-xdpi="96"
       inkscape:export-ydpi="96" />
    <path
       sodipodi:nodetypes="ccccccccccccccccccccccccccccccccccccccccccccc"
       inkscape:connector-curvature="0"
       style="fill:#ffffff;fill-opacity:1;stroke:#000000;stroke-width:0.52916056;stroke-miterlimit:4;stroke-dasharray:none;stroke-opacity:1"
       d="m 66.915742,106.15016 c -1.549123,-2e-5 -2.804938,1.26362 -2.804915,2.82237 -2.3e-5,1.55876 1.255792,2.82238 2.804915,2.82236 0.288992,-9.8e-4 0.57607,-0.0473 0.851072,-0.13664 0.473285,0.62645 1.210123,0.99462 1.992175,0.9954 0.329213,-6.6e-4 0.65507,-0.0666 0.958942,-0.19405 0.40533,0.61021 1.065131,0.97371 1.769304,0.97476 0.648984,-5.9e-4 1.263561,-0.30935 1.674806,-0.8414 0.588475,0.75994 1.486256,1.20342 2.436435,1.20352 0.833503,-0.001 1.631546,-0.34366 2.21445,-0.95056 0.4936,0.46637 1.156694,0.72908 1.848349,0.73227 0.563508,1.08411 1.642197,1.7587 2.814722,1.76028 1.1306,-0.002 2.177309,-0.62917 2.756476,-1.65294 0.414818,0.2305 0.880906,0.35146 1.354762,0.35164 0.906534,-8.2e-4 1.790243,0.12301 2.315968,-0.62011 0.386609,0.95269 1.307992,1.01446 2.371765,1.01452 0.790757,-9.9e-4 1.537371,-0.35055 2.026052,-0.94817 0.434541,0.20418 0.91087,0.31087 1.393692,0.31217 0.916618,-9.9e-4 1.789167,-0.38178 2.398689,-1.04594 0.501832,0.52776 1.205573,0.828 1.942849,0.82885 0.7768,-3.5e-4 1.51453,-0.33294 2.01891,-0.91019 0.33497,0.13748 0.69318,0.20845 1.05493,0.20902 1.54913,2e-5 2.80494,-1.26361 2.80491,-2.82237 2e-5,-1.55875 -1.25579,-2.82239 -2.80491,-2.82237 -0.93831,7.3e-4 -1.81412,0.4735 -2.33361,1.25975 -0.24045,-0.0689 -0.48967,-0.10426 -0.74023,-0.10496 -0.602337,2e-4 -1.18672,0.20042 -1.657273,0.56781 -0.594982,-0.87556 -1.60332,-1.4028 -2.684265,-1.40355 -1.311663,9.3e-4 -2.491467,0.77414 -2.982024,1.95435 -0.144499,-0.0248 -0.290937,-0.0378 -0.43772,-0.0387 -0.780089,7.2e-4 -1.685347,-0.0255 -2.174953,0.55835 -0.359593,-1.18669 -1.279832,-1.63205 -2.51278,-1.6333 -0.793176,9.9e-4 -1.548717,0.34048 -2.079541,0.93351 -0.573361,-0.49432 -1.291045,-0.76472 -2.031697,-0.76545 -0.468623,9.8e-4 -0.931313,0.11056 -1.355653,0.32023 -0.430961,-0.27108 -0.934453,-0.41578 -1.449262,-0.41653 -0.527305,7.3e-4 -1.042456,0.1525 -1.479867,0.43596 -0.573341,-0.88991 -1.547799,-1.4262 -2.592739,-1.42688 -1.206643,0.002 -2.303037,0.71537 -2.811157,1.83025 -0.374659,-0.29937 -0.83087,-0.46178 -1.300084,-0.46287 -0.181389,5.9e-4 -0.361988,0.0253 -0.537566,0.0736 -0.440343,-0.80295 -1.279266,-1.30198 -2.19068,-1.3031 -0.124687,7.2e-4 -0.249148,0.0109 -0.372344,0.0302 -0.487595,-0.91726 -1.437102,-1.49028 -2.470903,-1.49117 z"
       id="path1034"
       inkscape:export-filename="/home/johrpan/Projekte/jolakotturinn/assets/tree2.png"
       inkscape:export-xdpi="96"
       inkscape:export-ydpi="96" />
    <path
       sodipodi:type="star"
       style="fill:#ffff00;fill-opacity:1;stroke:#000000;stroke-width:0.52928793;stroke-miterlimit:4;stroke-dasharray:none;stroke-opacity:1"
       id="path1040"
       sodipodi:sides="8"
       sodipodi:cx="84.090614"
       sodipodi:cy="64.842072"
       sodipodi:r1="5.3282981"
       sodipodi:r2="2.1313193"
       sodipodi:arg1="2.1955789"
       sodipodi:arg2="2.588278"
       inkscape:flatsided="false"
       inkscape:rounded="0"
       inkscape:randomized="0"
       d="m 80.973981,69.163803 1.303334,-3.201701 -3.446418,-0.267898 3.18554,-1.342348 -2.247554,-2.626418 3.201701,1.303334 0.267897,-3.446418 1.342349,3.18554 2.626417,-2.247553 -1.303333,3.201701 3.446418,0.267897 -3.185541,1.342348 2.247554,2.626418 -3.201701,-1.303334 -0.267897,3.446418 -1.342348,-3.18554 z"
       transform="matrix(0.80410977,-0.59418814,0.59445807,0.80374465,-21.576633,65.926443)"
       inkscape:transform-center-x="0.23791748"
       inkscape:transform-center-y="-1.8976214"
       inkscape:export-filename="/home/johrpan/Projekte/jolakotturinn/assets/tree2.png"
       inkscape:export-xdpi="96"
       inkscape:export-ydpi="96" />
    <ellipse
       cy="77.528381"
       cx="83.494614"
       id="circle1048"
       style="fill:#ff0000;fill-opacity:1;stroke:#000000;stroke-width:0.52916056;stroke-miterlimit:4;stroke-dasharray:none;stroke-opacity:1"
       inkscape:transform-center-x="7.9373683"
       inkscape:transform-center-y="-0.85044322"
       rx="1.9438456"
       ry="1.9438647"
       inkscape:export-filename="/home/johrpan/Projekte/jolakotturinn/assets/tree2.png"
       inkscape:export-xdpi="96"
       inkscape:export-ydpi="96" />
    <ellipse
       cy="81.780602"
       cx="89.353149"
       id="circle1052"
       style="fill:#ff0000;fill-opacity:1;stroke:#000000;stroke-width:0.52916056;stroke-miterlimit:4;stroke-dasharray:none;stroke-opacity:1"
       inkscape:transform-center-x="7.9373711"
       inkscape:transform-center-y="-0.85043786"
       rx="1.9438456"
       ry="1.9438647"
       inkscape:export-filename="/home/johrpan/Projekte/jolakotturinn/assets/tree2.png"
       inkscape:export-xdpi="96"
       inkscape:export-ydpi="96" />
    <ellipse
       inkscape:transform-center-y="-0.85043825"
       inkscape:transform-center-x="7.9373669"
       style="fill:#ff0000;fill-opacity:1;stroke:#000000;stroke-width:0.52916056;stroke-miterlimit:4;stroke-dasharray:none;stroke-opacity:1"
       id="circle1054"
       cx="83.116646"
       cy="86.316284"
       rx="1.9438456"
       ry="1.9438647"
       inkscape:export-filename="/home/johrpan/Projekte/jolakotturinn/assets/tree2.png"
       inkscape:export-xdpi="96"
       inkscape:export-ydpi="96" />
    <ellipse
       cy="92.269356"
       cx="75.273766"
       id="circle1056"
       style="fill:#ff0000;fill-opacity:1;stroke:#000000;stroke-width:0.52916056;stroke-miterlimit:4;stroke-dasharray:none;stroke-opacity:1"
       inkscape:transform-center-x="7.937366"
       inkscape:transform-center-y="-0.85044449"
       rx="1.9438456"
       ry="1.9438647"
       inkscape:export-filename="/home/johrpan/Projekte/jolakotturinn/assets/tree2.png"
       inkscape:export-xdpi="96"
       inkscape:export-ydpi="96" />
    <ellipse
       inkscape:transform-center-y="-0.85044371"
       inkscape:transform-center-x="7.9373681"
       style="fill:#ff0000;fill-opacity:1;stroke:#000000;stroke-width:0.52916056;stroke-miterlimit:4;stroke-dasharray:none;stroke-opacity:1"
       id="circle1058"
       cx="83.967079"
       cy="98.127953"
       rx="1.9438456"
       ry="1.9438647"
       inkscape:export-filename="/home/johrpan/Projekte/jolakotturinn/assets/tree2.png"
       inkscape:export-xdpi="96"
       inkscape:export-ydpi="96" />
    <ellipse
       cy="94.915176"
       cx="94.83371"
       id="circle1060"
       style="fill:#ff0000;fill-opacity:1;stroke:#000000;stroke-width:0.52916056;stroke-miterlimit:4;stroke-dasharray:none;stroke-opacity:1"
       inkscape:transform-center-x="7.9373725"
       inkscape:transform-center-y="-0.85044216"
       rx="1.9438456"
       ry="1.9438647"
       inkscape:export-filename="/home/johrpan/Projekte/jolakotturinn/assets/tree2.png"
       inkscape:export-xdpi="96"
       inkscape:export-ydpi="96" />
    <ellipse
       inkscape:transform-center-y="-0.85045381"
       inkscape:transform-center-x="7.9373687"
       style="fill:#ff0000;fill-opacity:1;stroke:#000000;stroke-width:0.52916056;stroke-miterlimit:4;stroke-dasharray:none;stroke-opacity:1"
       id="circle1062"
       cx="71.399574"
       cy="104.64799"
       rx="1.9438456"
       ry="1.9438647"
       inkscape:export-filename="/home/johrpan/Projekte/jolakotturinn/assets/tree2.png"
       inkscape:export-xdpi="96"
       inkscape:export-ydpi="96" />
    <ellipse
       cy="108.8057"
       cx="81.604767"
       id="circle1064"
       style="fill:#ff0000;fill-opacity:1;stroke:#000000;stroke-width:0.52916056;stroke-miterlimit:4;stroke-dasharray:none;stroke-opacity:1"
       inkscape:transform-center-x="7.9373688"
       inkscape:transform-center-y="-0.85044145"
       rx="1.9438456"
       ry="1.9438647"
       inkscape:export-filename="/home/johrpan/Projekte/jolakotturinn/assets/tree2.png"
       inkscape:export-xdpi="96"
       inkscape:export-ydpi="96" />
    <ellipse
       inkscape:transform-center-y="-0.85044565"
       inkscape:transform-center-x="7.9373694"
       style="fill:#ff0000;fill-opacity:1;stroke:#000000;stroke-width:0.52916056;stroke-miterlimit:4;stroke-dasharray:none;stroke-opacity:1"
       id="circle1066"
       cx="89.920105"
       cy="105.8764"
       rx="1.9438456"
       ry="1.9438647"
       inkscape:export-filename="/home/johrpan/Projekte/jolakotturinn/assets/tree2.png"
       inkscape:export-xdpi="96"
       inkscape:export-ydpi="96" />
    <ellipse
       cy="108.8057"
       cx="99.274864"
       id="circle1068"
       style="fill:#ff0000;fill-opacity:1;stroke:#000000;stroke-width:0.52916056;stroke-miterlimit:4;stroke-dasharray:none;stroke-opacity:1"
       inkscape:transform-center-x="7.9373682"
       inkscape:transform-center-y="-0.85044145"
       rx="1.9438456"
       ry="1.9438647"
       inkscape:export-filename="/home/johrpan/Projekte/jolakotturinn/assets/tree2.png"
       inkscape:export-xdpi="96"
       inkscape:export-ydpi="96" />
    <path
       sodipodi:nodetypes="ccccc"
       style="fill:#008000;stroke:#000000;stroke-width:0.57183486;stroke-linecap:butt;stroke-linejoin:miter;stroke-miterlimit:4;stroke-dasharray:none;stroke-opacity:1"
       d="m 19.891255,149.41037 c 0,0 -1.952597,7.40033 -7.414485,9.11686 0,0 15.483985,6.56396 34.160118,0.30092 0,0 -4.862842,-2.92277 -7.435214,-9.37139 z"
       id="path1072"
       inkscape:connector-curvature="0"
       inkscape:export-filename="/home/johrpan/Projekte/jolakotturinn/assets/tree3.png"
       inkscape:export-xdpi="96"
       inkscape:export-ydpi="96" />
    <path
       inkscape:connector-curvature="0"
       id="path1074"
       d="m 22.531485,142.70945 c 0,0 -1.541193,5.71813 -5.457347,7.04877 0,0 11.243149,5.10677 24.633866,0.25174 0,0 -3.486639,-2.26568 -5.331021,-7.26456 z"
       style="fill:#008000;stroke:#000000;stroke-width:0.57183486;stroke-linecap:butt;stroke-linejoin:miter;stroke-miterlimit:4;stroke-dasharray:none;stroke-opacity:1"
       inkscape:export-filename="/home/johrpan/Projekte/jolakotturinn/assets/tree3.png"
       inkscape:export-xdpi="96"
       inkscape:export-ydpi="96" />
    <path
       style="fill:#008000;stroke:#000000;stroke-width:0.57183486;stroke-linecap:butt;stroke-linejoin:miter;stroke-miterlimit:4;stroke-dasharray:none;stroke-opacity:1"
       d="m 24.439205,136.96286 c 0,0 -1.148854,4.90367 -4.068083,6.04477 0,0 8.381009,4.37938 18.36288,0.21588 0,0 -2.599054,-1.94297 -3.973915,-6.22981 z"
       id="path1076"
       inkscape:connector-curvature="0"
       inkscape:export-filename="/home/johrpan/Projekte/jolakotturinn/assets/tree3.png"
       inkscape:export-xdpi="96"
       inkscape:export-ydpi="96" />
    <path
       inkscape:connector-curvature="0"
       id="path1078"
       d="M 40.717704,131.18888 Z"
       style="fill:none;stroke:#000000;stroke-width:0.57183486;stroke-linecap:butt;stroke-linejoin:miter;stroke-miterlimit:4;stroke-dasharray:none;stroke-opacity:1"
       inkscape:export-filename="/home/johrpan/Projekte/jolakotturinn/assets/tree3.png"
       inkscape:export-xdpi="96"
       inkscape:export-ydpi="96" />
    <path
       sodipodi:nodetypes="ccccccccccccccccccccccccccccccccccccccccccccc"
       inkscape:connector-curvature="0"
       id="path1080"
       d="m 45.651545,157.96054 c 1.349492,0.0661 2.388934,1.23413 2.321635,2.60888 -0.06724,1.37477 -1.21578,2.43567 -2.56527,2.36956 -0.251701,-0.0134 -0.499795,-0.0663 -0.735497,-0.15684 -0.439335,0.53233 -1.097108,0.82561 -1.778413,0.79293 -0.286761,-0.0146 -0.567777,-0.0867 -0.82699,-0.21207 -0.379434,0.52089 -0.969897,0.81335 -1.583372,0.78423 -0.565324,-0.0283 -1.087376,-0.32676 -1.422659,-0.81354 -0.545444,0.64515 -1.34667,0.99797 -2.174402,0.95752 -0.726045,-0.0366 -1.40646,-0.3727 -1.888054,-0.93282 -0.450121,0.39027 -1.039102,0.59366 -1.641762,0.56697 -0.53768,0.93211 -1.506478,1.48105 -2.527971,1.43242 -0.984837,-0.0496 -1.86957,-0.64782 -2.329913,-1.57542 -0.37131,0.18558 -0.782553,0.27239 -1.195353,0.25234 -0.789677,-0.0394 -1.511291,0.1753 -1.937191,-0.50252 -0.815527,0.58776 -1.236778,0.69571 -2.163468,0.65038 -0.688806,-0.0348 -1.324127,-0.37474 -1.724036,-0.92267 -0.387355,0.16153 -0.806906,0.2353 -1.227562,0.21585 -0.798442,-0.0402 -1.542127,-0.41303 -2.044436,-1.0248 -0.459936,0.44406 -1.085951,0.67883 -1.728251,0.64813 -0.676685,-0.0334 -1.304983,-0.35823 -1.719459,-0.88886 -0.297727,0.10693 -0.612848,0.15423 -0.928002,0.13932 -1.349492,-0.0661 -2.388932,-1.23412 -2.321633,-2.60887 0.06724,-1.37477 1.21578,-2.43567 2.565268,-2.36956 0.817363,0.0406 1.559897,0.495 1.978516,1.21059 0.21243,-0.0506 0.431056,-0.0712 0.649369,-0.061 0.524705,0.0258 1.025136,0.22738 1.419196,0.57149 0.556094,-0.74683 1.45725,-1.16882 2.398933,-1.12337 1.142587,0.0568 2.13698,0.78906 2.513382,1.85087 0.126949,-0.0157 0.255073,-0.0209 0.382975,-0.0153 0.679532,0.034 1.188354,0.028 1.589669,0.5637 0.682738,-0.52562 1.466251,-1.36327 2.540364,-1.31177 0.690906,0.035 1.334442,0.36635 1.771265,0.91203 0.520809,-0.41151 1.157678,-0.61937 1.802917,-0.58844 0.408176,0.0211 0.806524,0.13726 1.16713,0.34028 0.387123,-0.22068 0.831979,-0.32683 1.280477,-0.30554 0.459321,0.0232 0.901534,0.17898 1.270342,0.44765 0.537867,-0.76041 1.409896,-1.19184 2.320207,-1.14785 1.051078,0.0529 1.975372,0.72917 2.369892,1.73413 0.339298,-0.24804 0.743727,-0.37183 1.152524,-0.35278 0.157986,0.008 0.314248,0.0378 0.465116,0.0879 0.418256,-0.68936 1.170605,-1.09369 1.964615,-1.0558 0.10858,0.006 0.216574,0.0202 0.323057,0.0426 0.46435,-0.78818 1.31623,-1.25306 2.216845,-1.20974 z"
       style="fill:#ffffff;fill-opacity:1;stroke:#000000;stroke-width:0.57183486;stroke-miterlimit:4;stroke-dasharray:none;stroke-opacity:1"
       inkscape:export-filename="/home/johrpan/Projekte/jolakotturinn/assets/tree3.png"
       inkscape:export-xdpi="96"
       inkscape:export-ydpi="96" />
    <path
       sodipodi:nodetypes="cccc"
       inkscape:connector-curvature="0"
       id="path1082"
       d="m 29.286226,123.34097 c 0,0 0.467393,11.5453 -7.348391,13.75437 5.962956,1.35594 8.898856,1.29012 14.421225,0.19618 -8.138338,-2.94891 -7.072834,-13.95055 -7.072834,-13.95055 z"
       style="fill:#008000;stroke:#000000;stroke-width:0.57183486;stroke-linecap:butt;stroke-linejoin:miter;stroke-miterlimit:4;stroke-dasharray:none;stroke-opacity:1"
       inkscape:export-filename="/home/johrpan/Projekte/jolakotturinn/assets/tree3.png"
       inkscape:export-xdpi="96"
       inkscape:export-ydpi="96" />
    <path
       sodipodi:nodetypes="ccccccccccccccccccccccccccccccccccccccccccccc"
       inkscape:connector-curvature="0"
       style="fill:#ffffff;fill-opacity:1;stroke:#000000;stroke-width:0.57183486;stroke-miterlimit:4;stroke-dasharray:none;stroke-opacity:1"
       d="m 22.069346,136.18011 c -0.603735,-1e-5 -1.09316,0.51364 -1.093151,1.14724 -8e-6,0.63361 0.489416,1.14724 1.093151,1.14723 0.112623,-4.7e-4 0.224507,-0.0193 0.331684,-0.0555 0.184452,0.25465 0.471617,0.4043 0.776403,0.40463 0.128304,-2.8e-4 0.2553,-0.0271 0.373726,-0.0789 0.157968,0.24803 0.41511,0.3958 0.689546,0.39622 0.252925,-2.5e-4 0.492441,-0.12576 0.652717,-0.34201 0.229344,0.3089 0.579232,0.48915 0.949542,0.4892 0.324839,-4.4e-4 0.635857,-0.1397 0.86303,-0.38638 0.192369,0.18956 0.450795,0.29635 0.72035,0.29765 0.219612,0.44067 0.640007,0.71487 1.096972,0.71552 0.440624,-6.2e-4 0.848556,-0.25575 1.074273,-0.67189 0.161665,0.0937 0.343312,0.14286 0.527986,0.14294 0.3533,-3.4e-4 0.286825,0.033 0.889552,-0.10048 0.319752,0.23555 0.522802,0.26081 0.937381,0.26084 0.308179,-4.6e-4 0.599155,-0.14248 0.789608,-0.3854 0.169352,0.083 0.354989,0.12636 0.543158,0.12689 0.357229,-5.3e-4 0.697285,-0.15519 0.934835,-0.42515 0.195575,0.21451 0.469841,0.33656 0.757177,0.3369 0.302743,-1.3e-4 0.590251,-0.13533 0.786826,-0.36996 0.130542,0.0559 0.270151,0.0846 0.411134,0.0849 0.603733,1e-5 1.093156,-0.51364 1.093148,-1.14724 8e-6,-0.6336 -0.489415,-1.14724 -1.093148,-1.14724 -0.365684,3e-4 -0.707008,0.19247 -0.909472,0.51207 -0.09371,-0.028 -0.190832,-0.0424 -0.288488,-0.0427 -0.234745,7e-5 -0.462493,0.0815 -0.645882,0.23081 -0.231877,-0.3559 -0.624857,-0.57022 -1.04613,-0.57053 -0.511188,3.8e-4 -0.97099,0.31468 -1.162173,0.7944 -0.314906,-0.0859 -0.628103,-0.0831 -0.628103,-0.0831 -0.304022,2.9e-4 -0.392695,0.26867 -0.782425,-0.24405 0,0 -0.106477,-0.12497 -0.586998,-0.12547 -0.309123,5.3e-4 -0.603577,0.1384 -0.810453,0.37946 -0.223455,-0.20093 -0.503153,-0.31085 -0.791806,-0.31114 -0.182636,5.1e-4 -0.362957,0.045 -0.528334,0.13015 -0.167955,-0.11017 -0.364181,-0.16899 -0.564815,-0.1693 -0.205505,3e-4 -0.406273,0.062 -0.576743,0.17721 -0.223449,-0.36174 -0.60322,-0.57973 -1.01046,-0.58 -0.47026,6.2e-4 -0.897556,0.29078 -1.095582,0.74396 -0.146016,-0.12168 -0.323813,-0.18771 -0.506677,-0.18814 -0.07068,2.3e-4 -0.141078,0.0102 -0.209505,0.0299 -0.171615,-0.32639 -0.498565,-0.52924 -0.853767,-0.52969 -0.04859,2.9e-4 -0.09708,0.004 -0.14511,0.0123 -0.19003,-0.37284 -0.560078,-0.60577 -0.962977,-0.60614 z"
       id="path1084"
       inkscape:export-filename="/home/johrpan/Projekte/jolakotturinn/assets/tree3.png"
       inkscape:export-xdpi="96"
       inkscape:export-ydpi="96" />
    <path
       sodipodi:nodetypes="ccccccccccccccccccccccccccccccccccccccccccccc"
       id="path1086"
       d="m 38.33129,142.25298 c 0.758723,0.0155 1.358686,0.69464 1.340043,1.5168 -0.01863,0.82216 -0.648796,1.47604 -1.407517,1.46049 -0.141527,-0.003 -0.281581,-0.0307 -0.415204,-0.0807 -0.239291,0.32568 -0.604577,0.51246 -0.987616,0.50503 -0.161234,-0.004 -0.32004,-0.0418 -0.46735,-0.11198 -0.205814,0.31777 -0.533314,0.50288 -0.878213,0.49637 -0.317851,-0.007 -0.615164,-0.17588 -0.810221,-0.46062 -0.297307,0.39492 -0.742319,0.61982 -1.207694,0.61033 -0.408217,-0.009 -0.794982,-0.19764 -1.073222,-0.5236 -0.247329,0.24104 -0.575237,0.37295 -0.914034,0.36769 -0.288947,0.56614 -0.825329,0.91113 -1.399623,0.90019 -0.553723,-0.0122 -1.058873,-0.35372 -1.330296,-0.89951 -0.205923,0.1174 -0.435649,0.17653 -0.667736,0.17187 -0.443987,-0.0101 -0.630088,0.13037 -0.878691,-0.26687 -0.510187,0.20066 -0.900952,0.43848 -1.421961,0.42784 -0.387281,-0.009 -0.748779,-0.20034 -0.980979,-0.52047 -0.215268,0.10334 -0.44984,0.15484 -0.686328,0.15067 -0.44892,-0.0101 -0.871729,-0.21932 -1.162319,-0.57575 -0.252093,0.27334 -0.600359,0.42462 -0.961468,0.41766 -0.380457,-0.008 -0.737801,-0.1908 -0.977938,-0.50034 -0.165698,0.0692 -0.341997,0.10298 -0.519177,0.0996 -0.758723,-0.0155 -1.358684,-0.69464 -1.340042,-1.51681 0.01862,-0.82217 0.648795,-1.47605 1.407517,-1.46049 0.459552,0.0101 0.88285,0.26796 1.127891,0.68787 0.11857,-0.034 0.241067,-0.0501 0.363801,-0.0479 0.295007,0.006 0.57883,0.11764 0.804907,0.31615 0.301871,-0.45585 0.802033,-0.72381 1.331466,-0.71336 0.642408,0.0137 1.211007,0.43332 1.437161,1.06074 0.07106,-0.0117 0.396126,-0.1719 0.468029,-0.17089 0.382061,0.008 0.373715,0.004 0.719057,0.0429 0.190304,-0.6223 0.732667,-0.41954 1.33655,-0.40782 0.388462,0.009 0.754455,0.19513 1.007352,0.51325 0.286727,-0.25497 0.641464,-0.39039 1.004226,-0.38334 0.229505,0.005 0.454813,0.0677 0.66014,0.18251 0.214311,-0.13863 0.462642,-0.20991 0.714791,-0.20514 0.258253,0.006 0.508747,0.0908 0.719591,0.2448 0.291449,-0.46363 0.775126,-0.7367 1.28692,-0.72657 0.590968,0.013 1.119423,0.40045 1.354959,0.99358 0.187078,-0.15413 0.412461,-0.23523 0.642282,-0.23108 0.08883,0.002 0.176992,0.017 0.262407,0.0442 0.225272,-0.4191 0.642119,-0.67387 1.088519,-0.66532 0.06105,0.002 0.121898,0.008 0.182005,0.0197 0.249777,-0.47891 0.721673,-0.77163 1.228015,-0.7617 z"
       style="fill:#ffffff;fill-opacity:1;stroke:#000000;stroke-width:0.57183486;stroke-miterlimit:4;stroke-dasharray:none;stroke-opacity:1"
       inkscape:connector-curvature="0"
       inkscape:export-filename="/home/johrpan/Projekte/jolakotturinn/assets/tree3.png"
       inkscape:export-xdpi="96"
       inkscape:export-ydpi="96" />
    <path
       sodipodi:nodetypes="ccccccccccccccccccccccccccccccccccccccccccccc"
       inkscape:connector-curvature="0"
       style="fill:#ffffff;fill-opacity:1;stroke:#000000;stroke-width:0.57183486;stroke-miterlimit:4;stroke-dasharray:none;stroke-opacity:1"
       d="m 17.024458,148.90391 c -1.069989,-1e-5 -1.937389,0.79825 -1.937373,1.78297 -1.6e-5,0.98471 0.867384,1.78298 1.937373,1.78297 0.199609,-7.4e-4 0.397895,-0.0299 0.587842,-0.0863 0.326903,0.39574 0.835842,0.62832 1.37601,0.62881 0.22739,-4.1e-4 0.45246,-0.0421 0.662347,-0.12259 0.279964,0.38549 0.735695,0.61513 1.222071,0.61579 0.448258,-3.8e-4 0.87275,-0.19544 1.156797,-0.53154 0.406466,0.48008 1.026569,0.76024 1.682863,0.7603 0.575706,-6.8e-4 1.12692,-0.21709 1.529536,-0.60049 0.340933,0.29461 0.798938,0.46058 1.276669,0.46259 0.389214,0.68487 1.134274,1.11103 1.944144,1.11202 0.780913,-9.6e-4 1.503884,-0.39747 1.903918,-1.0442 0.286518,0.1456 0.608447,0.22202 0.935744,0.22213 0.626149,-5.1e-4 1.00726,-0.11914 1.525104,-0.39791 0.267036,0.60183 0.977991,0.64703 1.712745,0.64707 0.546181,-7.2e-4 1.061874,-0.22145 1.399408,-0.59898 0.30014,0.12898 0.629143,0.19639 0.96263,0.19721 0.633115,-8.1e-4 1.235789,-0.24118 1.656792,-0.66076 0.346617,0.33341 0.832697,0.52307 1.34194,0.52361 0.536544,-2.2e-4 1.046093,-0.21032 1.39448,-0.57499 0.231358,0.0868 0.478785,0.13169 0.728647,0.13205 1.069988,1e-5 1.937388,-0.79827 1.937373,-1.78298 1.5e-5,-0.98471 -0.867385,-1.78298 -1.937373,-1.78297 -0.648098,4.6e-4 -1.253023,0.29912 -1.611845,0.79581 -0.166075,-0.0436 -0.338209,-0.0659 -0.511282,-0.0664 -0.416036,1.3e-4 -0.819672,0.12663 -1.144692,0.35872 -0.410953,-0.55312 -1.107421,-0.8862 -1.85404,-0.88667 -0.905971,5.8e-4 -1.72087,0.48905 -2.059702,1.23461 -0.09983,-0.0157 -0.200953,-0.0238 -0.302336,-0.0244 -0.538814,4.6e-4 -1.205231,0.12281 -1.655929,0.18176 -0.501552,-0.5709 -0.730316,-0.86005 -1.58192,-0.86084 -0.547852,8.3e-4 -1.069709,0.21509 -1.436355,0.58974 -0.396025,-0.31229 -0.891733,-0.48311 -1.403307,-0.48358 -0.32368,8.1e-4 -0.643264,0.0699 -0.936357,0.2023 -0.297667,-0.17123 -0.645433,-0.26264 -1.001015,-0.26313 -0.364212,4.8e-4 -0.72003,0.0964 -1.022154,0.27542 -0.396014,-0.56218 -1.069077,-0.90097 -1.790823,-0.90141 -0.833437,9.7e-4 -1.590722,0.45192 -1.941684,1.15623 -0.258779,-0.18911 -0.573886,-0.29172 -0.897976,-0.29241 -0.125288,3.7e-4 -0.250028,0.016 -0.371302,0.0465 -0.30415,-0.50724 -0.883599,-0.82249 -1.513116,-0.82321 -0.08611,4.7e-4 -0.172088,0.007 -0.257181,0.0191 -0.336787,-0.57946 -0.992617,-0.94145 -1.706671,-0.94201 z"
       id="path1088"
       inkscape:export-filename="/home/johrpan/Projekte/jolakotturinn/assets/tree3.png"
       inkscape:export-xdpi="96"
       inkscape:export-ydpi="96" />
    <path
       inkscape:connector-curvature="0"
       id="path1136"
       d="m 74.146775,151.72297 c 0,0 -1.952636,7.38156 -7.414632,9.09374 0,0 15.484291,6.54731 34.160787,0.30016 0,0 -4.862933,-2.91536 -7.435355,-9.34763 z"
       style="fill:#008000;stroke:#000000;stroke-width:0.57111502;stroke-linecap:butt;stroke-linejoin:miter;stroke-miterlimit:4;stroke-dasharray:none;stroke-opacity:1"
       sodipodi:nodetypes="ccccc"
       inkscape:export-filename="/home/johrpan/Projekte/jolakotturinn/assets/tree4.png"
       inkscape:export-xdpi="96"
       inkscape:export-ydpi="96" />
    <path
       style="fill:#008000;stroke:#000000;stroke-width:0.57111502;stroke-linecap:butt;stroke-linejoin:miter;stroke-miterlimit:4;stroke-dasharray:none;stroke-opacity:1"
       d="m 76.787057,145.03904 c 0,0 -1.541224,5.70363 -5.457455,7.03089 0,0 11.243371,5.09382 24.634352,0.25111 0,0 -3.486708,-2.25994 -5.331126,-7.24614 z"
       id="path1138"
       inkscape:connector-curvature="0"
       inkscape:export-filename="/home/johrpan/Projekte/jolakotturinn/assets/tree4.png"
       inkscape:export-xdpi="96"
       inkscape:export-ydpi="96" />
    <path
       inkscape:connector-curvature="0"
       id="path1140"
       d="m 78.694814,139.30702 c 0,0 -1.148876,4.89124 -4.068163,6.02944 0,0 8.381174,4.36828 18.363242,0.21534 0,0 -2.599105,-1.93805 -3.973993,-6.21402 z"
       style="fill:#008000;stroke:#000000;stroke-width:0.57111502;stroke-linecap:butt;stroke-linejoin:miter;stroke-miterlimit:4;stroke-dasharray:none;stroke-opacity:1"
       inkscape:export-filename="/home/johrpan/Projekte/jolakotturinn/assets/tree4.png"
       inkscape:export-xdpi="96"
       inkscape:export-ydpi="96" />
    <path
       style="fill:none;stroke:#000000;stroke-width:0.57111502;stroke-linecap:butt;stroke-linejoin:miter;stroke-miterlimit:4;stroke-dasharray:none;stroke-opacity:1"
       d="M 94.973635,133.54768 Z"
       id="path1142"
       inkscape:connector-curvature="0"
       inkscape:export-filename="/home/johrpan/Projekte/jolakotturinn/assets/tree4.png"
       inkscape:export-xdpi="96"
       inkscape:export-ydpi="96" />
    <path
       style="fill:#ffffff;fill-opacity:1;stroke:#000000;stroke-width:0.57111502;stroke-miterlimit:4;stroke-dasharray:none;stroke-opacity:1"
       d="m 99.907573,160.25146 c 1.349517,0.0659 2.388977,1.231 2.321677,2.60226 -0.0672,1.37128 -1.2158,2.42949 -2.565317,2.36355 -0.251706,-0.0134 -0.499805,-0.0661 -0.735511,-0.15644 -0.439344,0.53098 -1.09713,0.82352 -1.778448,0.79092 -0.286767,-0.0146 -0.567789,-0.0865 -0.827007,-0.21153 -0.379441,0.51956 -0.969916,0.81128 -1.583403,0.78224 -0.565335,-0.0282 -1.087397,-0.32593 -1.422687,-0.81148 -0.545455,0.64351 -1.346697,0.99544 -2.174445,0.95509 -0.726059,-0.0365 -1.406488,-0.37175 -1.888091,-0.93045 -0.45013,0.38928 -1.039123,0.59215 -1.641795,0.56553 -0.53769,0.92975 -1.506507,1.47729 -2.528021,1.42879 -0.984856,-0.0495 -1.869606,-0.64618 -2.329959,-1.57143 -0.371317,0.18511 -0.782568,0.2717 -1.195376,0.2517 -0.789693,-0.0393 -1.511321,0.17486 -1.937229,-0.50124 -0.815543,0.58627 -1.236803,0.69394 -2.163511,0.64873 -0.68882,-0.0347 -1.324153,-0.37379 -1.72407,-0.92033 -0.387363,0.16112 -0.806922,0.2347 -1.227586,0.2153 -0.798458,-0.0401 -1.542158,-0.41198 -2.044477,-1.0222 -0.459945,0.44293 -1.085972,0.67711 -1.728285,0.64649 -0.676698,-0.0333 -1.305009,-0.35733 -1.719493,-0.88661 -0.297733,0.10666 -0.61286,0.15384 -0.92802,0.13897 -1.349519,-0.0659 -2.388979,-1.23099 -2.321679,-2.60226 0.06724,-1.37128 1.215804,-2.42949 2.565319,-2.36355 0.817379,0.0405 1.559928,0.49374 1.978555,1.20752 0.212434,-0.0505 0.431064,-0.071 0.649382,-0.0608 0.524715,0.0257 1.025156,0.22681 1.419224,0.57005 0.556105,-0.74494 1.457278,-1.16586 2.39898,-1.12053 1.14261,0.0567 2.137022,0.78706 2.513432,1.84618 0.126951,-0.0157 0.255078,-0.0209 0.382982,-0.0153 0.679546,0.0339 1.188378,0.0279 1.589701,0.56227 0.682751,-0.52429 1.466279,-1.35981 2.540414,-1.30844 0.690919,0.0349 1.334468,0.36542 1.7713,0.90971 0.520819,-0.41046 1.157701,-0.6178 1.802952,-0.58694 0.408184,0.021 0.80654,0.13691 1.167153,0.33941 0.387131,-0.22012 0.831996,-0.326 1.280503,-0.30476 0.45933,0.0231 0.901551,0.17852 1.270367,0.44651 0.537877,-0.75848 1.409923,-1.18881 2.320252,-1.14494 1.051099,0.0528 1.975411,0.72732 2.369939,1.72974 0.339305,-0.24741 0.743742,-0.37089 1.152547,-0.35189 0.157989,0.008 0.314254,0.0377 0.465125,0.0877 0.418264,-0.68761 1.170628,-1.09092 1.964654,-1.05312 0.108582,0.006 0.216578,0.0201 0.323063,0.0425 0.464359,-0.78618 1.316256,-1.24989 2.216889,-1.20668 z"
       id="path1144"
       inkscape:connector-curvature="0"
       sodipodi:nodetypes="ccccccccccccccccccccccccccccccccccccccccccccc"
       inkscape:export-filename="/home/johrpan/Projekte/jolakotturinn/assets/tree4.png"
       inkscape:export-xdpi="96"
       inkscape:export-ydpi="96" />
    <path
       style="fill:#008000;stroke:#000000;stroke-width:0.57111502;stroke-linecap:butt;stroke-linejoin:miter;stroke-miterlimit:4;stroke-dasharray:none;stroke-opacity:1"
       d="m 83.541931,125.71967 c 0,0 0.467402,11.51603 -7.348536,13.71949 5.963074,1.35251 8.899032,1.28685 14.42151,0.19569 -8.138499,-2.94143 -7.072974,-13.91518 -7.072974,-13.91518 z"
       id="path1146"
       inkscape:connector-curvature="0"
       sodipodi:nodetypes="cccc"
       inkscape:export-filename="/home/johrpan/Projekte/jolakotturinn/assets/tree4.png"
       inkscape:export-xdpi="96"
       inkscape:export-ydpi="96" />
    <path
       id="path1148"
       d="m 76.324909,138.52626 c -0.603747,-1e-5 -1.093182,0.51233 -1.093173,1.14433 -8e-6,0.632 0.489426,1.14433 1.093173,1.14432 0.112625,-4.7e-4 0.224511,-0.0192 0.33169,-0.0554 0.184456,0.254 0.471626,0.40327 0.776418,0.4036 0.128307,-2.8e-4 0.255305,-0.027 0.373734,-0.0787 0.157971,0.2474 0.415118,0.3948 0.689559,0.39522 0.25293,-2.5e-4 0.492451,-0.12544 0.65273,-0.34115 0.229349,0.30812 0.579244,0.48791 0.949561,0.48796 0.324845,-4.3e-4 0.63587,-0.13934 0.863047,-0.3854 0.192373,0.18908 0.450804,0.2956 0.720364,0.2969 0.219617,0.43955 0.64002,0.71306 1.096994,0.7137 0.440633,-6.1e-4 0.848573,-0.2551 1.074294,-0.67018 0.161668,0.0935 0.343319,0.1425 0.527997,0.14258 0.353307,-3.4e-4 0.28683,0.0329 0.889569,-0.10023 0.319758,0.23495 0.522812,0.26015 0.9374,0.26018 0.308185,-4.6e-4 0.599166,-0.14212 0.789623,-0.38442 0.169356,0.0828 0.354996,0.12604 0.543169,0.12657 0.357236,-5.3e-4 0.697299,-0.1548 0.934853,-0.42408 0.195579,0.21397 0.469851,0.33571 0.757192,0.33605 0.302749,-1.3e-4 0.590263,-0.13499 0.786842,-0.36902 0.130544,0.0558 0.270156,0.0844 0.411142,0.0847 0.603745,1e-5 1.093178,-0.51234 1.09317,-1.14433 8e-6,-0.63199 -0.489425,-1.14433 -1.09317,-1.14433 -0.365691,3e-4 -0.707022,0.19198 -0.90949,0.51077 -0.09371,-0.0279 -0.190836,-0.0423 -0.288494,-0.0426 -0.234749,7e-5 -0.462502,0.0813 -0.645894,0.23022 -0.231882,-0.35499 -0.62487,-0.56877 -1.046151,-0.56908 -0.511198,3.8e-4 -0.971009,0.31388 -1.162196,0.79239 -0.314912,-0.0857 -0.628115,-0.0829 -0.628115,-0.0829 -0.304028,2.9e-4 -0.392703,0.26799 -0.782441,-0.24343 0,0 -0.106479,-0.12466 -0.587009,-0.12516 -0.30913,5.3e-4 -0.603589,0.13805 -0.810469,0.3785 -0.22346,-0.20042 -0.503163,-0.31006 -0.791822,-0.31035 -0.18264,5.1e-4 -0.362964,0.0449 -0.528344,0.12982 -0.167959,-0.10989 -0.364189,-0.16856 -0.564827,-0.16887 -0.205509,3e-4 -0.406281,0.0618 -0.576754,0.17676 -0.223453,-0.36082 -0.603232,-0.57826 -1.01048,-0.57853 -0.470269,6.2e-4 -0.897574,0.29004 -1.095604,0.74208 -0.146018,-0.12138 -0.323819,-0.18724 -0.506687,-0.18767 -0.07068,2.3e-4 -0.14108,0.0102 -0.209509,0.0298 -0.171618,-0.32557 -0.498575,-0.5279 -0.853784,-0.52835 -0.04859,2.9e-4 -0.09708,0.004 -0.145112,0.0123 -0.190034,-0.3719 -0.560089,-0.60424 -0.962996,-0.6046 z"
       style="fill:#ffffff;fill-opacity:1;stroke:#000000;stroke-width:0.57111502;stroke-miterlimit:4;stroke-dasharray:none;stroke-opacity:1"
       inkscape:connector-curvature="0"
       sodipodi:nodetypes="ccccccccccccccccccccccccccccccccccccccccccccc"
       inkscape:export-filename="/home/johrpan/Projekte/jolakotturinn/assets/tree4.png"
       inkscape:export-xdpi="96"
       inkscape:export-ydpi="96" />
    <path
       inkscape:connector-curvature="0"
       style="fill:#ffffff;fill-opacity:1;stroke:#000000;stroke-width:0.57111502;stroke-miterlimit:4;stroke-dasharray:none;stroke-opacity:1"
       d="m 92.587174,144.58373 c 0.758738,0.0155 1.358712,0.69287 1.340069,1.51295 -0.01863,0.82008 -0.648809,1.4723 -1.407545,1.45679 -0.14153,-0.003 -0.281586,-0.0306 -0.415212,-0.0805 -0.239296,0.32486 -0.604589,0.51116 -0.987635,0.50375 -0.161238,-0.004 -0.320047,-0.0417 -0.46736,-0.1117 -0.205818,0.31697 -0.533324,0.50161 -0.87823,0.49512 -0.317857,-0.007 -0.615176,-0.17544 -0.810237,-0.45946 -0.297313,0.39392 -0.742334,0.61825 -1.207718,0.60879 -0.408225,-0.009 -0.794998,-0.19714 -1.073243,-0.52228 -0.247334,0.24043 -0.575248,0.37201 -0.914052,0.36676 -0.288953,0.56471 -0.825345,0.90882 -1.399651,0.89791 -0.553734,-0.0122 -1.058894,-0.35282 -1.330322,-0.89723 -0.205927,0.1171 -0.435658,0.17608 -0.667749,0.17143 -0.443996,-0.0101 -0.630101,0.13004 -0.878708,-0.26619 -0.510198,0.20015 -0.90097,0.43737 -1.42199,0.42676 -0.387288,-0.009 -0.748793,-0.19984 -0.980998,-0.51915 -0.215272,0.10307 -0.449849,0.15444 -0.686341,0.15028 -0.448929,-0.0101 -0.871747,-0.21876 -1.162342,-0.57429 -0.252098,0.27265 -0.600371,0.42355 -0.961487,0.4166 -0.380465,-0.008 -0.737816,-0.19031 -0.977958,-0.49907 -0.165701,0.069 -0.342003,0.10272 -0.519187,0.0993 -0.758738,-0.0155 -1.358711,-0.69288 -1.340068,-1.51296 0.01862,-0.82009 0.648807,-1.47231 1.407544,-1.45679 0.459561,0.0101 0.882868,0.26728 1.127914,0.68613 0.118572,-0.0339 0.241071,-0.05 0.363808,-0.0478 0.295013,0.006 0.578841,0.11734 0.804923,0.31535 0.301877,-0.4547 0.802049,-0.72198 1.331492,-0.71156 0.642421,0.0137 1.211031,0.43223 1.437189,1.05805 0.07106,-0.0117 0.396134,-0.17146 0.468039,-0.17045 0.382068,0.008 0.373722,0.004 0.719071,0.0428 0.190308,-0.62072 0.732681,-0.41848 1.336576,-0.40679 0.38847,0.009 0.75447,0.19464 1.007372,0.51195 0.286733,-0.25432 0.641477,-0.3894 1.004246,-0.38237 0.229509,0.005 0.454822,0.0675 0.660153,0.18205 0.214315,-0.13828 0.462651,-0.20938 0.714805,-0.20462 0.258258,0.006 0.508757,0.0906 0.719605,0.24418 0.291455,-0.46245 0.775142,-0.73483 1.286946,-0.72473 0.590979,0.013 1.119445,0.39944 1.354985,0.99106 0.187082,-0.15374 0.41247,-0.23463 0.642295,-0.23049 0.08883,0.002 0.176996,0.017 0.262412,0.0441 0.225277,-0.41804 0.642132,-0.67216 1.088541,-0.66364 0.06105,0.002 0.1219,0.008 0.182008,0.0196 0.249782,-0.47769 0.721688,-0.76967 1.22804,-0.75976 z"
       id="path1150"
       sodipodi:nodetypes="ccccccccccccccccccccccccccccccccccccccccccccc"
       inkscape:export-filename="/home/johrpan/Projekte/jolakotturinn/assets/tree4.png"
       inkscape:export-xdpi="96"
       inkscape:export-ydpi="96" />
    <path
       id="path1152"
       d="m 71.279921,151.21779 c -1.07001,-1e-5 -1.937427,0.79623 -1.937411,1.77845 -1.6e-5,0.98221 0.867401,1.77846 1.937411,1.77845 0.199613,-7.4e-4 0.397903,-0.0298 0.587854,-0.0861 0.326909,0.39473 0.835858,0.62672 1.376037,0.62721 0.227394,-4.1e-4 0.452469,-0.042 0.66236,-0.12228 0.279969,0.38452 0.735709,0.61357 1.222095,0.61423 0.448267,-3.8e-4 0.872767,-0.19494 1.15682,-0.53019 0.406474,0.47886 1.026589,0.75831 1.682896,0.75837 0.575717,-6.8e-4 1.126942,-0.21654 1.529566,-0.59897 0.34094,0.29387 0.798954,0.45942 1.276694,0.46142 0.389222,0.68314 1.134297,1.10821 1.944183,1.1092 0.780928,-9.6e-4 1.503913,-0.39646 1.903955,-1.04155 0.286524,0.14523 0.608459,0.22146 0.935763,0.22157 0.626161,-5.1e-4 1.00728,-0.11884 1.525134,-0.3969 0.267041,0.6003 0.97801,0.64538 1.712779,0.64542 0.546191,-7.1e-4 1.061895,-0.22088 1.399435,-0.59746 0.300146,0.12866 0.629156,0.1959 0.962649,0.19671 0.633128,-8e-4 1.235814,-0.24056 1.656825,-0.65908 0.346624,0.33256 0.832713,0.52174 1.341967,0.52228 0.536554,-2.2e-4 1.046113,-0.20979 1.394507,-0.57353 0.231363,0.0866 0.478794,0.13136 0.728661,0.13171 1.07001,1e-5 1.937427,-0.79624 1.937412,-1.77845 1.5e-5,-0.98222 -0.867402,-1.77846 -1.937412,-1.77845 -0.64811,4.6e-4 -1.253047,0.29836 -1.611876,0.79379 -0.166079,-0.0435 -0.338216,-0.0657 -0.511292,-0.0662 -0.416045,1.3e-4 -0.819689,0.12631 -1.144715,0.35781 -0.410961,-0.55172 -1.107443,-0.88396 -1.854077,-0.88442 -0.905989,5.7e-4 -1.720904,0.48781 -2.059742,1.23148 -0.09983,-0.0157 -0.200957,-0.0237 -0.302342,-0.0243 -0.538825,4.6e-4 -1.205255,0.1225 -1.655962,0.1813 -0.501562,-0.56946 -0.73033,-0.85787 -1.581951,-0.85866 -0.547863,8.3e-4 -1.06973,0.21454 -1.436384,0.58824 -0.396032,-0.31149 -0.89175,-0.48188 -1.403334,-0.48235 -0.323687,8.1e-4 -0.643277,0.0697 -0.936376,0.20179 -0.297673,-0.1708 -0.645445,-0.26198 -1.001034,-0.26247 -0.36422,4.8e-4 -0.720045,0.0962 -1.022175,0.27473 -0.396021,-0.56076 -1.069098,-0.89869 -1.790858,-0.89913 -0.833453,9.7e-4 -1.590753,0.45078 -1.941722,1.1533 -0.258784,-0.18863 -0.573898,-0.29098 -0.897994,-0.29167 -0.125291,3.7e-4 -0.250033,0.016 -0.371309,0.0464 -0.304156,-0.50595 -0.883617,-0.8204 -1.513146,-0.82112 -0.08611,4.7e-4 -0.172092,0.007 -0.257186,0.0191 -0.336794,-0.57799 -0.992637,-0.93906 -1.706705,-0.93962 z"
       style="fill:#ffffff;fill-opacity:1;stroke:#000000;stroke-width:0.57111502;stroke-miterlimit:4;stroke-dasharray:none;stroke-opacity:1"
       inkscape:connector-curvature="0"
       sodipodi:nodetypes="ccccccccccccccccccccccccccccccccccccccccccccc"
       inkscape:export-filename="/home/johrpan/Projekte/jolakotturinn/assets/tree4.png"
       inkscape:export-xdpi="96"
       inkscape:export-ydpi="96" />
    <path
       inkscape:transform-center-y="-1.9212576"
       inkscape:transform-center-x="0.21595319"
       transform="matrix(0.82625873,-0.58948389,0.59373502,0.82055233,-24.43101,127.39496)"
       d="m 80.973981,69.163803 1.303334,-3.201701 -3.446418,-0.267898 3.18554,-1.342348 -2.247554,-2.626418 3.201701,1.303334 0.267897,-3.446418 1.342349,3.18554 2.626417,-2.247553 -1.303333,3.201701 3.446418,0.267897 -3.185541,1.342348 2.247554,2.626418 -3.201701,-1.303334 -0.267897,3.446418 -1.342348,-3.18554 z"
       inkscape:randomized="0"
       inkscape:rounded="0"
       inkscape:flatsided="false"
       sodipodi:arg2="2.588278"
       sodipodi:arg1="2.1955789"
       sodipodi:r2="2.1313193"
       sodipodi:r1="5.3282981"
       sodipodi:cy="64.842072"
       sodipodi:cx="84.090614"
       sodipodi:sides="8"
       id="path1114"
       style="fill:#ffff00;fill-opacity:1;stroke:#000000;stroke-width:0.52125698;stroke-miterlimit:4;stroke-dasharray:none;stroke-opacity:1"
       sodipodi:type="star"
       inkscape:export-filename="/home/johrpan/Projekte/jolakotturinn/assets/tree4.png"
       inkscape:export-xdpi="96"
       inkscape:export-ydpi="96" />
    <ellipse
       inkscape:transform-center-y="-0.85964343"
       inkscape:transform-center-x="8.0760715"
       style="fill:#ff0000;fill-opacity:1;stroke:#000000;stroke-width:0.52850056;stroke-miterlimit:4;stroke-dasharray:none;stroke-opacity:1"
       id="circle1116"
       cx="80.940643"
       cy="140.32108"
       rx="1.9778134"
       ry="1.9648914"
       inkscape:export-filename="/home/johrpan/Projekte/jolakotturinn/assets/tree4.png"
       inkscape:export-xdpi="96"
       inkscape:export-ydpi="96" />
    <ellipse
       inkscape:transform-center-y="-0.85964555"
       inkscape:transform-center-x="8.0760747"
       style="fill:#ff0000;fill-opacity:1;stroke:#000000;stroke-width:0.52850056;stroke-miterlimit:4;stroke-dasharray:none;stroke-opacity:1"
       id="circle1118"
       cx="88.638832"
       cy="144.88588"
       rx="1.9778134"
       ry="1.9648914"
       inkscape:export-filename="/home/johrpan/Projekte/jolakotturinn/assets/tree4.png"
       inkscape:export-xdpi="96"
       inkscape:export-ydpi="96" />
    <ellipse
       cy="149.47063"
       cx="82.694267"
       id="circle1120"
       style="fill:#ff0000;fill-opacity:1;stroke:#000000;stroke-width:0.52850056;stroke-miterlimit:4;stroke-dasharray:none;stroke-opacity:1"
       inkscape:transform-center-x="8.0760687"
       inkscape:transform-center-y="-0.85963606"
       rx="1.9778134"
       ry="1.9648914"
       inkscape:export-filename="/home/johrpan/Projekte/jolakotturinn/assets/tree4.png"
       inkscape:export-xdpi="96"
       inkscape:export-ydpi="96" />
    <ellipse
       inkscape:transform-center-y="-0.85965167"
       inkscape:transform-center-x="8.0760743"
       style="fill:#ff0000;fill-opacity:1;stroke:#000000;stroke-width:0.52850056;stroke-miterlimit:4;stroke-dasharray:none;stroke-opacity:1"
       id="circle1122"
       cx="75.248878"
       cy="154.55502"
       rx="1.9778134"
       ry="1.9648914"
       inkscape:export-filename="/home/johrpan/Projekte/jolakotturinn/assets/tree4.png"
       inkscape:export-xdpi="96"
       inkscape:export-ydpi="96" />
    <ellipse
       cy="161.94325"
       cx="83.158653"
       id="circle1124"
       style="fill:#ff0000;fill-opacity:1;stroke:#000000;stroke-width:0.52850056;stroke-miterlimit:4;stroke-dasharray:none;stroke-opacity:1"
       inkscape:transform-center-x="8.0760686"
       inkscape:transform-center-y="-0.85964144"
       rx="1.9778134"
       ry="1.9648914"
       inkscape:export-filename="/home/johrpan/Projekte/jolakotturinn/assets/tree4.png"
       inkscape:export-xdpi="96"
       inkscape:export-ydpi="96" />
    <ellipse
       inkscape:transform-center-y="-0.85964742"
       inkscape:transform-center-x="8.0760748"
       style="fill:#ff0000;fill-opacity:1;stroke:#000000;stroke-width:0.52850056;stroke-miterlimit:4;stroke-dasharray:none;stroke-opacity:1"
       id="circle1126"
       cx="94.215172"
       cy="156.42967"
       rx="1.9778134"
       ry="1.9648914"
       inkscape:export-filename="/home/johrpan/Projekte/jolakotturinn/assets/tree4.png"
       inkscape:export-xdpi="96"
       inkscape:export-ydpi="96" />
  </g>
</svg>
